<?xml version="1.0" encoding="UTF-8" standalone="no"?><!DOCTYPE svg PUBLIC "-//W3C//DTD SVG 1.1//EN" "http://www.w3.org/Graphics/SVG/1.1/DTD/svg11.dtd"><svg width="100%" height="100%" viewBox="0 0 411 185" version="1.1" xmlns="http://www.w3.org/2000/svg" xmlns:xlink="http://www.w3.org/1999/xlink" xml:space="preserve" xmlns:serif="http://www.serif.com/" style="fill-rule:evenodd;clip-rule:evenodd;stroke-linejoin:round;stroke-miterlimit:2;"><g id="Gemini_Generated_Image_emzjd5emzjd5emzj-removebg-preview.png"><path d="M363.499,2.819c4.044,0.579 3.916,0.789 8.047,1.378c1.347,0.317 2.694,0.635 4.042,0.952c6.511,1.841 6.293,2.351 6.864,2.471c2.588,0.544 13.075,7.186 13.962,8.978c1.156,2.333 3.731,0.81 10.667,17.983c0.299,2.48 0.327,2.385 0.856,4.817c0.395,2.592 0.533,2.462 0.906,5.065c0.271,1.175 1.894,8.2 0.131,15.076c-0.458,3.104 -0.618,2.998 -1.072,6.052c-3.545,17.436 -22.189,29.124 -24.249,31.079c-6.719,6.378 -9.784,4.697 -10.817,13.847l-0.588,3.897c-1.825,4.201 -3.45,4.154 -1.734,8.076c0.456,0.607 0.655,0.401 0.835,1.113c0.131,0.516 0.931,0.122 3.008,5.94c0.608,0.96 0.431,1.019 1.607,6.87c0.276,1.353 0.553,2.705 0.829,4.058c0.036,0.802 1.219,6.075 -0.49,12.974c-0.025,0.075 -2.319,11.267 -14.897,17.806c-2.118,0.384 -1.998,0.422 -3.956,1.04c-10.443,1.776 -10.919,0.493 -17.866,-1.03c-2.407,-1.819 -7.446,-2.736 -12.854,-13.855c-0.881,-3.412 -1.104,-3.303 -1.689,-6.824c-0.838,-5.548 -0.563,-5.482 -0.352,-11.051c0.789,-2.474 0.658,-2.399 1.064,-4.971c0.19,-0.634 0.296,-0.535 0.475,-1.135c0.072,-0.241 0.064,-0.224 0.861,-3.029c1.748,-8.086 6.915,-8.339 3.789,-13.076c-0.454,-1.568 -0.607,-1.437 -1.161,-2.917c0,0 -0.994,-2.716 -1.081,-2.952l-0.601,-2.835c-1.772,-6.454 -0.694,-11.43 -0.273,-16.055c0.284,-1.01 0.568,-2.02 0.852,-3.03c3.882,-12.026 5.717,-11.746 5.902,-13.028c0.672,-4.646 -9.782,1.263 -19.884,-5.259c-5.793,-3.741 -2.809,8.478 -2.627,9.224c1.431,20.45 0.253,38.639 0.036,41.991c-0.31,1.671 -0.621,3.343 -0.931,5.014c-0.819,3.971 -1.618,7.349 -1.768,7.986c-0.312,0.999 -0.624,1.998 -0.936,2.998c-0.425,2.065 -0.727,1.914 -1.243,3.947c-2.615,5.993 -2.425,6.039 -6.44,11.262c-8.28,11.444 -12.825,11.152 -16.031,13.202c-2.131,1.363 -2.071,1.367 -2.258,1.475c-0.742,0.153 -2.18,0.451 -8.989,2.968c-1.329,0.322 -2.657,0.644 -3.986,0.966c-10.374,1.943 -10.396,1.368 -20.936,0.841c-1.322,-0.289 -2.644,-0.578 -3.966,-0.866c-5.894,-1.358 -9.792,-3.475 -11.005,-3.877c-0.454,-0.284 -0.649,0.114 -5.971,-3.02c-14.304,-8.423 -14.106,-14.515 -17.161,-17.81c-0.438,-0.473 -0.557,-0.601 -3.687,-7.168c-0.991,-1.067 -0.728,-1.653 -2.105,-1.438c-0.382,0.06 -2.891,2.093 -3.131,2.556c-2.252,4.355 -17.814,17.716 -28.08,21.742c-1.585,0.361 -1.512,0.414 -2.977,1.071c-0.935,0.209 -1.87,0.419 -2.805,0.628c-0.991,0.345 -1.981,0.691 -2.972,1.036c-0.137,0.059 0.104,0.768 -7.086,1.97c-2.096,0.498 -1.995,0.532 -4.031,0.861c-2.103,0.434 -6.434,1.044 -6.995,1.123c-2.384,0.296 -20.061,2.491 -29.979,-1.655c-14.598,-5.233 -11.732,-11.678 -14.949,-10.408c-0.567,0.224 -0.223,0.502 -4.882,5.845c-2.325,2.218 -1.993,2.431 -4.323,4.696c-1.099,1.027 -1.029,0.962 -2.062,1.932c-6.009,5.84 -6.518,5.097 -13.971,8.899c-0.709,0.182 -1.595,0.41 -8.737,2.738c-2.874,0.705 -2.858,0.691 -3.104,0.761c-0.59,0.167 -0.436,0.342 -1.036,0.513c-1.19,0.135 -10.248,1.42 -20.012,-0.028c-0.596,-0.171 -0.446,-0.342 -1.03,-0.51c-0.243,-0.07 -0.228,-0.054 -3.074,-0.728l-2.849,-0.619c-1.246,-0.436 -11.587,-4.051 -14.938,-7.015c-0.173,-0.141 -1.082,-0.882 -2.146,-1.784c-11.564,-9.004 -12.649,-14.806 -15.392,-22.94c-0.012,-0.028 -0.328,0.076 -0.915,-3.053c-0.67,-6.072 -0.995,-7.448 -1.145,-8.084c-0.296,-3.537 -0.4,-3.491 0.065,-6.993c0.69,-3.367 0.443,-3.292 0.818,-9.938c2.109,-7.27 1.856,-7.32 2.041,-7.95c0.881,-2.739 5.781,-17.979 22.729,-27.871c6.039,-3.525 6.965,-4.882 7.379,-5.49l1.464,0.808l0.55,-0.555l0.059,-1l0.391,-1.034l1.171,-0.966c0.884,-2.793 0.894,-3.661 0.897,-3.988c0.057,-5.162 0.925,-6.631 -2.068,-7.822l-0.83,-0.186c-0.245,-1.693 0.003,-1.732 -0.867,-3.159c-4.783,-5.574 -4.766,-5.663 -6.797,-12.761c-0.716,-4.742 -0.739,-4.662 -0.788,-5.07c-0.027,-1.339 -0.055,-2.678 -0.082,-4.016c0.627,-6.019 0.03,-6.023 1.681,-11.907c2.846,-6.703 2.415,-7.008 7.726,-12.039c1.04,-0.924 1.951,-1.646 2.125,-1.784c1.656,-1.6 1.904,-0.97 3.941,-1.907c1.94,-0.308 1.864,-0.201 3.79,-0.803c6.065,-0.664 5.976,-0.395 12.048,-0.22c2.646,0.74 2.556,0.688 5.083,1.588c3.671,2.131 3.681,2.112 3.833,2.26c0.173,0.143 1.079,0.894 2.137,1.815c0.59,0.504 3.286,0.458 8.784,13.061c0.168,0.967 0.336,1.934 0.504,2.9c1.286,11.307 0.679,11.262 -0.563,19.932c-5.683,7.441 -2.571,8.418 0.053,18.148c0.317,5.515 0.31,5.48 0.342,5.956c0.073,1.086 0.16,0.983 0.229,2.011c0.136,3.553 0.238,3.456 -0.028,6.985c-0.317,3.514 -0.37,3.427 -0.678,6.951c-1.137,4.108 -1.212,3.977 -2.832,7.961c-1.769,4.351 -2.152,4.086 -5.312,7.573c-1.148,1.86 -1.303,1.673 -2.538,3.511c0.005,0.008 -0.363,2.085 1.964,1.612c2.77,-0.563 6.485,-1.179 7.05,-1.273c1.339,0.075 2.678,0.15 4.017,0.225c4.687,0.504 6.596,0.767 7.944,1.629c4.746,2.149 7,4.325 7.868,1.78c0.016,-8.014 0.571,-8.025 -0.491,-12.955c-0.227,-4.516 -0.3,-4.453 -0.648,-9c-0.512,-8.019 -0.965,-14.714 -1.052,-15.994c-0.595,-7.017 -0.804,-8.269 -0.923,-8.981c-0.72,-4.533 -0.679,-4.464 -1.077,-9.01c-1.052,-11.941 -0.87,-11.947 -1.043,-12.974c-0.071,-0.421 -0.683,-0.613 -0.754,-1.034c0.46,-3.218 0.195,-3.169 0.047,-8.007c-0.169,-5.527 -0,-5.44 0.247,-10.991c1.641,-8.319 2.512,-10.882 7.653,-15.296c2.464,-2.116 2.527,-1.942 5.302,-3.587c0.931,-0.197 1.861,-0.395 2.792,-0.592c2.847,-0.805 2.83,-0.795 3.075,-0.869c0.594,-0.179 0.491,-0.292 1.12,-0.481l2.863,-0.628c5.642,-0.838 5.545,-0.86 6.029,-0.92c4.696,-0.837 4.634,-0.864 5.04,-0.918c11.874,-0.846 11.832,-1.065 27.997,-0.247c2.079,0.48 1.944,0.642 4.108,1.115c2.294,0.503 4.588,1.006 6.882,1.508c5.351,1.983 6.57,1.209 10.197,3.543c1.95,1.255 3.814,0.8 6.825,3.367c3.129,2.668 3.84,1.468 6.883,4.15c0.253,0.223 2.905,2.56 3.088,2.878c2.056,3.57 8.232,4.842 16.826,23.044c2.505,3.715 5.267,15.444 5.592,16.825c0.903,4.635 0.956,4.615 1.025,5.019c1.562,7.472 0.848,7.498 2.034,15.024c0.063,0.639 0.601,6.045 0.856,7.978c2.816,2.483 3.215,1.473 8.684,0.73c2.535,-0.128 2.446,-0.179 5.027,-0.061c5.192,0.668 5.402,-0.238 10.112,2.131c5.969,3.001 6.682,2.436 9.589,8.362c1.24,5.162 0.772,5.208 2.974,10.026c1.648,5.849 3.958,2.654 4.597,2.052c0.612,-1.017 0.558,-0.968 0.902,-2.141c0.223,-1.344 1.676,-10.103 0.01,-17.03c-0.2,-2.327 -0.4,-4.653 -0.6,-6.98c-0.518,-4.591 -0.558,-4.514 -1.539,-9.025c-0.126,-2.538 -0.157,-2.448 -0.422,-4.934c-0.952,-5.544 -1.009,-5.524 -1.079,-6.008c-0.31,-1.685 -1.837,-8.216 -2.004,-8.929c-0.303,-1.008 -0.605,-2.015 -0.908,-3.023c-0.176,-0.712 -0.352,-1.425 -0.528,-2.137c-0.2,-0.952 -0.4,-1.904 -0.599,-2.856c-0.869,-3.823 -0.87,-3.813 -0.908,-4.016c-0.972,-5.621 -0.996,-5.552 -1.061,-6.038c-0.798,-8.66 -1.637,-8.866 1.611,-17c1.028,-2.065 0.439,-2.34 2.047,-3.918c0.142,-0.172 0.885,-1.077 1.778,-2.149c4.193,-4.597 4.49,-4.156 10.116,-6.674c1.182,-0.285 1.034,-0.762 12.921,-1.788c0.651,-0.004 1.302,-0.008 1.954,-0.013c10.046,0.69 11.133,-0.878 18.057,6.46c7.987,8.464 4.9,18.909 10.021,14.068c2.525,-3.226 6.242,-11.063 21.046,-18.825c2.496,-1.85 12.731,-4.202 13.867,-4.463c8.303,-1.068 8.287,-1.108 9.01,-1.187c5.538,-0.589 5.447,-0.3 11.024,-0.246l-211.003,65.382c-3.883,-0.471 -3.087,1.183 -3.342,2.351c1.076,2.86 0.642,2.892 1.064,5.938c0.453,4.552 0.888,4.443 1.041,9.003c0.218,6.018 1.134,5.946 0.591,11.998c2.318,6.844 5.84,1.112 9.365,-3.252c1.047,-1.296 1.552,-5.264 1.612,-5.737c-0.001,-2.668 -0.001,-5.336 -0.002,-8.004c-0.791,-5.925 -4.503,-11.532 -10.329,-12.297l211.003,-65.382l-200.672,85.684c-0.06,0.473 -0.565,4.441 -1.612,5.737c-3.526,4.364 -7.047,10.097 -9.365,3.252c-0.263,1.023 -0.526,2.045 -0.79,3.068c0.326,0.433 0.668,3.853 5.574,1.19c4.762,-2.586 5.378,-5.63 7.077,-9.194c-0.387,-2.053 -0.371,-2 -0.884,-4.053l200.672,-85.684l-207.018,64.736c-2.06,0.104 -2.007,0.097 -3.984,0.646c5.826,0.765 9.537,6.372 10.329,12.297c0.541,-2.066 0.515,-1.975 0.805,-4.047c-2.561,-5.289 -2.017,-5.887 -7.15,-8.897l207.018,-64.736l-199.869,73.633c-0.29,2.072 -0.265,1.981 -0.805,4.047c0.001,2.668 0.001,5.336 0.002,8.004c0.513,2.054 0.497,2 0.884,4.053c1.216,-3.857 1.718,-11.074 -0.081,-16.105l199.869,-73.633l-305.938,118.873c-0.712,0.574 -1.425,1.148 -2.137,1.722c-0.246,5.427 -2.447,4.834 -2.116,5.13c0,0 3.154,0.103 3.429,0.112c0.128,-0.553 2.258,-5.654 2.462,-6.142c-0.121,-0.083 -0.167,0.063 -1.638,-0.822l305.938,-118.873l-213.28,73.672c-1.011,3.798 -1.107,3.7 -1.188,4.026c0.424,5.986 0.425,5.906 0.889,11.952c0.188,-0.536 0.695,-1.986 1.339,-6.975c-0.153,-4.56 -0.588,-4.451 -1.041,-9.003l213.28,-73.672l-212.24,82.675c-0.644,4.989 -1.152,6.439 -1.339,6.975c0.645,6.502 0.63,6.462 0.697,7.023c0.075,0.633 0.371,0.455 0.444,1.068c0.263,-1.023 0.526,-2.045 0.79,-3.068c0.544,-6.052 -0.373,-5.98 -0.591,-11.998l212.24,-82.675l-13.953,57.686c0.99,0.011 1.98,0.021 2.97,0.032c4.275,-3.906 1.431,-4.596 1.056,-4.574c-0.947,0.057 -3.751,4.141 -4.026,4.542l13.953,-57.686l-214.799,66.679c-0.141,0.992 -0.283,1.985 -0.424,2.977c0.192,4.12 -0.175,4.08 0.755,8.042c0.08,-0.326 0.177,-0.228 1.188,-4.026c-0.422,-3.047 0.012,-3.078 -1.064,-5.938l-0.454,-1.054l214.799,-66.679l-308.075,120.595c-6.244,6.498 -1.492,7.152 -0.929,7.065c1.317,-0.202 1.052,-0.52 2.242,-1.823c-0.274,-0.009 -3.429,-0.112 -3.429,-0.112c-0.331,-0.296 1.87,0.298 2.116,-5.13l308.075,-120.595l-215.66,64.745c0.287,0.645 0.574,1.29 0.861,1.934l0.454,1.054c0.255,-1.169 -0.541,-2.822 3.342,-2.351c1.977,-0.549 1.924,-0.542 3.984,-0.646c-5.811,-2.553 -7.056,-1.303 -8.642,0.009l215.66,-64.745Z" style="fill:#052537;fill-opacity:1;"/><path d="M182.702,141.788c-5.778,3.942 -5.864,3.611 -12.098,6.909c-13.35,7.064 -51.467,13.885 -59.901,-1.291c-3.453,-6.213 -10.529,-121.756 -10.515,-121.95c0.894,-12.773 30.03,-15.505 51.294,-13.74c16.15,1.34 32.852,11.424 38.552,18.198c11.945,14.194 14.448,24.309 15.036,26.688c5.629,22.748 11.63,58.452 -22.368,85.185l-30.206,-73.586c-3.883,-0.471 -3.087,1.183 -3.342,2.351c1.076,2.86 0.642,2.892 1.064,5.938c0.453,4.552 0.888,4.443 1.041,9.003c0.218,6.018 1.134,5.946 0.591,11.998c2.318,6.844 5.84,1.112 9.365,-3.252c1.047,-1.296 1.552,-5.264 1.612,-5.737c-0.001,-2.668 -0.001,-5.336 -0.002,-8.004c-0.791,-5.925 -4.503,-11.532 -10.329,-12.297l30.206,73.586l-19.875,-53.285c-0.06,0.473 -0.565,4.441 -1.612,5.737c-3.526,4.364 -7.047,10.097 -9.365,3.252c-0.263,1.023 -0.526,2.045 -0.79,3.068c0.326,0.433 0.668,3.853 5.574,1.19c4.762,-2.586 5.378,-5.63 7.077,-9.194c-0.387,-2.053 -0.371,-2 -0.884,-4.053l19.875,53.285l-26.221,-74.232c-2.06,0.104 -2.007,0.097 -3.984,0.646c5.826,0.765 9.537,6.372 10.329,12.297c0.541,-2.066 0.515,-1.975 0.805,-4.047c-2.561,-5.289 -2.017,-5.887 -7.15,-8.897l26.221,74.232l-19.072,-65.336c-0.29,2.072 -0.265,1.981 -0.805,4.047c0.001,2.668 0.001,5.336 0.002,8.004c0.513,2.054 0.497,2 0.884,4.053c1.216,-3.857 1.718,-11.074 -0.081,-16.105l19.072,65.336l-32.484,-65.296c-1.011,3.798 -1.107,3.7 -1.188,4.026c0.424,5.986 0.425,5.906 0.889,11.952c0.188,-0.536 0.695,-1.986 1.339,-6.975c-0.153,-4.56 -0.588,-4.451 -1.041,-9.003l32.484,65.296l-31.443,-56.293c-0.644,4.989 -1.152,6.439 -1.339,6.975c0.645,6.502 0.63,6.462 0.697,7.023c0.075,0.633 0.371,0.455 0.444,1.068c0.263,-1.023 0.526,-2.045 0.79,-3.068c0.544,-6.052 -0.373,-5.98 -0.591,-11.998l31.443,56.293l-34.002,-72.289c-0.141,0.992 -0.283,1.985 -0.424,2.977c0.192,4.12 -0.175,4.08 0.755,8.042c0.08,-0.326 0.177,-0.228 1.188,-4.026c-0.422,-3.047 0.012,-3.078 -1.064,-5.938l-0.454,-1.054l34.002,72.289l-34.863,-74.224c0.287,0.645 0.574,1.29 0.861,1.934l0.454,1.054c0.255,-1.169 -0.541,-2.822 3.342,-2.351c1.977,-0.549 1.924,-0.542 3.984,-0.646c-5.811,-2.553 -7.056,-1.303 -8.642,0.009l34.863,74.224Z" style="fill:#23a953;"/><path d="M268.528,95.5c-0.605,-22.506 -0.81,-22.484 -4.654,-42.087c-2.872,-14.646 -7.374,-23.625 -3.073,-31.749c4.445,-8.396 22.712,-7.766 26.647,-6.885c3.967,0.887 12.037,2.693 14.487,48.707c2.158,40.542 5.716,54.724 -6.828,78.829c-3.574,6.869 -37.417,29.774 -66.444,6.95c-18.598,-14.623 -25.468,-49.939 -2.152,-52.672c19.122,-2.241 17.916,13.211 18.227,14.86c1.153,6.116 7.865,12.657 15.829,9.183c10.452,-4.559 7.964,-24.967 7.96,-25.135Z" style="fill:#22a752;"/><path d="M366.821,51.52c-0.078,-1.158 -0.676,-10.018 -10.309,-10.21c-12.58,-0.251 -15.22,10.103 -16.219,12.077c-4.545,8.983 -18.403,7.736 -23.943,3.297c-0.535,-0.541 -4.386,-4.431 -4.849,-8.184c-0.162,-1.314 -0.961,-7.781 3.827,-16.101c6.51,-11.314 7.563,-10.656 13.947,-14.372c34.118,-19.856 59.389,1.681 62.192,4.501c13.061,13.139 8.93,36.126 7.535,38.767c-12.138,22.983 -22.25,17.922 -33.094,34.288c-0.56,3.394 -0.263,3.366 -0.738,6.826c-1.212,8.827 -19.443,12.004 -28.005,3.324c-1.212,-2.297 -8.211,-15.564 9.49,-31.052c14.8,-12.949 18.559,-10.954 20.167,-23.16Z" style="fill:#24a652;"/><path d="M44.268,141.409c0.075,1.812 -0.227,1.834 0.436,2.992c7.529,13.148 35.244,-1.133 26.608,-15.74c-0.232,-0.416 -0.464,-0.832 -0.697,-1.248c0.1,-0.319 0.738,-2.349 1.489,-3.913l1.396,-0.72c0.044,-0.616 0.089,-1.232 0.133,-1.848c1.251,-0.164 11.089,-1.454 15.659,1.846c0.698,0.504 5.86,4.233 6.323,8.701c2.467,23.81 -26.627,46.877 -62.043,33.832c-2.674,-1.08 -19.648,-7.937 -22.868,-27.868c-5.967,-36.933 24.032,-41.557 31.788,-55.947c4.042,-7.499 -5.238,-22.594 19.021,-20.111c15.582,1.595 10.629,23.341 5.628,32.901c-5.488,10.491 -34.986,21.369 -23.356,39.01c-0.436,0.904 -1.01,0.3 -1.446,1.204c-0.037,0.077 -0.093,0.193 0.382,1c1.64,2.786 1.346,3.052 1.623,3.081c0.432,0.045 0.911,-0.274 1.3,-0.081c2.006,0.997 0.205,1.382 -1.377,2.909Z" style="fill:#21a551;"/><path d="M138.885,52.569c9.252,-3.13 12.523,-1.646 17.576,0.034c3.908,1.749 4.704,0.727 11.904,8.994c7.534,12.186 5.892,36.064 -4.884,43.88c-23.233,16.053 -20.657,-3.792 -21.458,-13.943c-1.545,-19.584 -2.428,-19.409 -3.138,-38.964l13.612,15.633c-3.883,-0.471 -3.087,1.183 -3.342,2.351c1.076,2.86 0.642,2.892 1.064,5.938c0.453,4.552 0.888,4.443 1.041,9.003c0.218,6.018 1.134,5.946 0.591,11.998c2.318,6.844 5.84,1.112 9.365,-3.252c1.047,-1.296 1.552,-5.264 1.612,-5.737c-0.001,-2.668 -0.001,-5.336 -0.002,-8.004c-0.791,-5.925 -4.503,-11.532 -10.329,-12.297l-13.612,-15.633l23.942,35.934c-0.06,0.473 -0.565,4.441 -1.612,5.737c-3.526,4.364 -7.047,10.097 -9.365,3.252c-0.263,1.023 -0.526,2.045 -0.79,3.068c0.326,0.433 0.668,3.853 5.574,1.19c4.762,-2.586 5.378,-5.63 7.077,-9.194c-0.387,-2.053 -0.371,-2 -0.884,-4.053l-23.942,-35.934l17.596,14.986c-2.06,0.104 -2.007,0.097 -3.984,0.646c5.826,0.765 9.537,6.372 10.329,12.297c0.541,-2.066 0.515,-1.975 0.805,-4.047c-2.561,-5.289 -2.017,-5.887 -7.15,-8.897l-17.596,-14.986l24.745,23.883c-0.29,2.072 -0.265,1.981 -0.805,4.047c0.001,2.668 0.001,5.336 0.002,8.004c0.513,2.054 0.497,2 0.884,4.053c1.216,-3.857 1.718,-11.074 -0.081,-16.105l-24.745,-23.883l11.334,23.923c-1.011,3.798 -1.107,3.7 -1.188,4.026c0.424,5.986 0.425,5.906 0.889,11.952c0.188,-0.536 0.695,-1.986 1.339,-6.975c-0.153,-4.56 -0.588,-4.451 -1.041,-9.003l-11.334,-23.923l12.375,32.926c-0.644,4.989 -1.152,6.439 -1.339,6.975c0.645,6.502 0.63,6.462 0.697,7.023c0.075,0.633 0.371,0.455 0.444,1.068c0.263,-1.023 0.526,-2.045 0.79,-3.068c0.544,-6.052 -0.373,-5.98 -0.591,-11.998l-12.375,-32.926l9.815,16.93c-0.141,0.992 -0.283,1.985 -0.424,2.977c0.192,4.12 -0.175,4.08 0.755,8.042c0.08,-0.326 0.177,-0.228 1.188,-4.026c-0.422,-3.047 0.012,-3.078 -1.064,-5.938l-0.454,-1.054l-9.815,-16.93l8.954,14.995c0.287,0.645 0.574,1.29 0.861,1.934l0.454,1.054c0.255,-1.169 -0.541,-2.822 3.342,-2.351c1.977,-0.549 1.924,-0.542 3.984,-0.646c-5.811,-2.553 -7.056,-1.303 -8.642,0.009l-8.954,-14.995Z" style="fill:#052737;fill-opacity:1;"/><path d="M361.589,123.365c7.56,5.977 7.737,19.418 5.658,24.036c-9.834,21.85 -39.401,10.775 -33.296,-13.785c2.679,-10.776 13.952,-17.575 27.638,-10.252Z" style="fill:#28a656;"/><path d="M114.571,19.794c19.858,-3.953 29.103,-6.346 48.863,-0.099c13.473,4.259 21.965,13.859 20.813,16.757c-3.624,9.121 -13.271,-15.421 -49.727,-11.739c-24.841,2.509 -19.785,12.061 -18.667,41.783c0.557,14.814 -1.514,15.589 -4.121,15.573c-1.912,-0.012 -2.587,-0.795 -3.969,-23.575c-1.885,-31.072 -3.449,-35.503 6.808,-38.7Z" style="fill:#58c979;"/><path d="M66.852,23.215c4.798,6.152 5.583,8.112 4.617,17.277c-0.432,4.095 -5.609,15.6 -21.899,12.516c-18.111,-3.429 -18.723,-39.017 10.927,-33.49c3.752,0.699 3.485,1.17 6.355,3.698Z" style="fill:#29a757;"/><path d="M269.449,29.109c-5.981,-1.373 -5.107,-9.744 7.054,-9.77c12.273,-0.026 14.758,0.046 17.22,12.093c1.561,7.638 2.049,20.032 3.257,28.984c0.24,1.779 4.104,19.971 -2.506,18.17c-2.022,-0.551 -2.701,-5.012 -2.73,-5.119c-0.237,-3.656 -2.634,-40.64 -9.316,-44.835c-3.112,-1.954 -11.97,0.229 -12.979,0.477Z" style="fill:#56c877;"/><path d="M46.247,80.442c1.426,-7.323 1.417,-7.276 1.54,-7.909c1.644,-8.4 8.439,-5.837 8.541,-0.024c0.393,22.403 -25.156,30.429 -31.353,40.294c-3.361,5.35 -3.509,5.387 -3.587,11.689c-0.049,3.954 -3.699,3.471 -4.091,0.046c-1.167,-10.209 2.765,-14.572 4.034,-17.146c3.43,-6.961 5.372,-5.223 6.749,-7.361c1.409,-2.188 2.09,-1.299 4.155,-2.909c11.473,-8.943 12.177,-8.897 14.012,-16.68Z" style="fill:#56c878;"/><path d="M376.868,17.5l0.632,-0.346c0.687,0.522 13.795,8.027 8.032,11.401c-4.622,2.706 -20.639,-17.24 -50.725,-0.59c-1.061,0.587 -10.689,8.689 -10.918,3.533c-0.125,-2.816 7.545,-9.918 10.557,-11.104c4.911,-1.933 16.916,-7.392 34.044,-5.755c2.602,0.249 2.354,0.988 4.923,1.149c1.596,0.1 1.42,0.396 3.455,1.712Z" style="fill:#55c876;"/><path d="M73.633,120.932c-0.044,0.616 -0.089,1.232 -0.133,1.848l-1.396,0.72c-0.75,1.564 -1.388,3.593 -1.489,3.913c0.232,0.416 0.464,0.832 0.697,1.248c8.636,14.608 -19.079,28.889 -26.608,15.74c-0.663,-1.158 -0.361,-1.18 -0.436,-2.992c1.583,-1.527 3.383,-1.912 1.377,-2.909c-0.389,-0.193 -0.868,0.126 -1.3,0.081c-0.277,-0.029 0.016,-0.295 -1.623,-3.081c-0.475,-0.807 -0.419,-0.923 -0.382,-1c0.437,-0.904 1.01,-0.301 1.446,-1.204c7.82,9.587 18.124,4.403 20.266,-0.029c3.395,-7.025 1.834,-8.708 9.581,-12.335Z" style="fill:#53c075;"/><path d="M270.623,121.472c-0.274,20.726 -36.844,13.166 -35.49,-6.028c0.201,-2.851 3.503,-7.765 6.04,-1.82c2.564,6.008 3.185,5.547 8.327,9.654c0.087,0.069 5.519,1.279 6,1.386c4.07,0.906 8.869,-3.908 15.123,-3.192Z" style="fill:#56c977;"/><path d="M153.445,48.849l-1.021,-1.349l-0.924,-1.327l-1,-0.535c-0.233,-0.064 -0.21,0.014 -3,-0.318c-2.026,0.224 -1.947,-0.276 -4.039,0.03c-2.42,0.353 -0.894,2.306 -5.03,5.14c-1.57,-3.644 -1.719,-12.806 18.132,-5.147c8.692,3.353 8.661,3.861 13.079,12.069c0.141,0.262 0.329,0.002 0.408,0.301c0.533,2.022 -0.425,1.838 -0.549,2.378l-1.135,1.507c-7.201,-8.267 -7.996,-7.245 -11.904,-8.994c0.68,-0.455 1.359,-0.909 2.039,-1.364c-1.669,-2.601 -1.994,-2.485 -5.055,-2.39Z" style="fill:#168841;"/><path d="M364.902,160.454c1.155,-0.889 1.924,-2.521 3.562,-1.772c1.267,0.58 -0.1,3.865 -0.747,4.121c-1.604,0.635 -1.738,-0.109 -3.361,0.622c-0.34,0.153 -0.111,0.332 -2.856,3.685l-1,0.798l-0.471,0.592l-0.529,-0.043l-1,0.502l-0.859,0.541l-1.141,0.082l-1,0.392l-1,-0.025l-1,0.04l-1,0.013l-1,-0.108l-1,0.158l-1,-0.095l-1,0.246l-1,-0.387l-1,0.062l-1,-0.252l-1,0.056l-1,-0.769l-1,0.252l-1,-0.295l-1,-0.497l-1,-0.225l-1,-0.165l-1,-1.186c2.082,-3.821 3.847,-0.7 6.945,-2.704c2.466,-1.595 2.481,0.28 4.048,0.42c9.936,0.887 9.301,-1.748 10.977,-2.345c2.514,-0.895 2.548,1.389 5.128,0.38c0.657,-0.257 -0.353,-1.838 0.304,-2.096Z" style="fill:#00233d;"/><path d="M220.69,104.526c0.538,-0.81 2.416,-3.635 11.803,-2.905c3.587,0.279 9.424,6.262 -0.991,7.076c-4.573,-0.12 -10.785,1.319 -10.812,-4.17Z" style="fill:#58ca78;"/><path d="M220.69,104.526c0.027,5.489 6.239,4.051 10.812,4.17l-0.238,0.803l0.236,1.358l1.327,0.642l-0.327,1.177c-2.926,2.547 -3.335,1.381 -7.158,1.354c0.114,-3.303 -1.815,-4.145 -3.566,-1.358c-2.496,3.035 -5.021,9.542 -5.062,2.973c-0.005,-0.85 -0.825,-1.24 0.816,-2.105c1.929,-1.017 1.484,-3.468 1.426,-3.787c-0,-0 -2.259,-1.607 -2.456,-1.746l-0.103,-0.507l-0.746,-1l0.788,-1l1.06,-0.86l1,-0.782l1,0.367l1.19,0.302Z" style="fill:#22ae53;"/><path d="M153.445,48.849c3.061,-0.094 3.385,-0.211 5.055,2.39c-0.68,0.455 -1.359,0.909 -2.039,1.364c-5.053,-1.68 -8.324,-3.164 -17.576,-0.034c-0.151,-0.693 -0.303,-1.386 -0.454,-2.079c4.136,-2.835 2.61,-4.787 5.03,-5.14c2.092,-0.305 2.013,0.194 4.039,-0.03c2.79,0.332 2.767,0.254 3,0.318l1,0.535l0.924,1.327l1.021,1.349Z" style="fill:#1c8247;"/><path d="M197.714,65.598c-5.68,2.959 -1.916,5.918 -2.206,13.903c-0.009,0.254 -2.523,11.464 -3.013,1.001c-0.265,-5.646 0.225,-14.665 0.294,-15.938c0.138,-2.548 1.586,-1.713 2.765,-3.962c1.327,-2.53 2.13,0.669 2.175,0.851c0.517,2.063 0.212,1.991 -0.015,4.146Z" style="fill:#1dad52;"/><path d="M387.193,46.589c0.23,0.654 0.459,1.308 0.689,1.963c-1.769,5.293 -0.786,5.375 -0.637,10.938c0.005,5.268 0.34,5.595 -0.733,5.978c-0.391,0.14 -0.844,-0.312 -1.235,-0.172c-0.388,-7.701 -0.615,-9.014 -0.75,-9.788c-0.377,-2.174 -1.031,-1.831 -1.052,-2.011c-0.176,-1.537 1.027,-1.354 1.119,-5.991c0.028,-1.421 -1.431,-2.733 -1.87,-4.07c-0.366,-1.114 1.593,-2.446 2.155,-1.144c0.275,0.636 -0.301,1.398 -0.148,2.074c0.059,0.259 0.361,-0.085 2.462,2.223Z" style="fill:#22ad54;"/><path d="M392.512,45.036c-9.023,-2.185 -1.932,-12.079 1.913,-7.457c0.255,0.307 1.654,1.988 0.982,4.893c-0.596,2.579 -2.227,2.338 -2.895,2.565Z" style="fill:#4ec674;"/><path d="M53.996,119.667c-0.436,2.196 -0.581,2.093 -2.041,3.833c-0.384,0.053 -0.584,-0.697 -0.968,-0.644c-0.895,0.124 -0.42,0.945 -1.346,0.966c-0.848,0.02 -0.345,-0.927 -1.141,-0.909c-0.203,0.723 -0.405,1.446 -0.608,2.17c-0.581,-0.544 -0.789,0.004 -1.41,-0.578c-0.056,-0.052 -0.151,-0.142 -0.205,-0.936c-0.198,-2.892 -0.583,-2.824 -0.542,-3.07c0.045,-0.272 0.72,-0.041 0.765,-0.313l0.034,-0.687l0.641,-1l0.487,-1l0.439,-1l1.03,-1c0.128,0.097 0.592,1.319 2.473,1.881c1.757,0.525 1.898,0.523 2.392,2.286Z" style="fill:#02223e;"/><path d="M36.67,65.504l0.83,0.186c2.993,1.191 2.125,2.661 2.068,7.822c-0.004,0.327 -0.013,1.194 -0.897,3.988l-1.171,0.966l-0.391,1.034l-0.059,1l-0.55,0.555l-1.464,-0.808c0.45,-1.216 0.992,-4.36 1.058,-4.744c0.307,-4.087 0.314,-3.996 0.576,-10Z" style="fill:#0c2034;fill-opacity:1;"/><path d="M277.004,58.465c2.527,1.254 3.434,0.574 3.671,0.397c3.328,-2.494 2.407,3.508 2.414,3.62c0.22,3.538 -1.14,3.124 -4.62,3.11c-2.506,-0.01 -0.038,-1.867 -1.427,-3.937c-0.252,-0.375 -0.035,-3.098 -0.038,-3.19Z" style="fill:#20ad4f;"/><path d="M208.595,135.496c1.344,-2.348 1.532,-2.083 3.327,-3.996c1.276,3.467 1.687,3.335 1.637,6.975c-0.007,0.475 1.9,2.216 -0.094,2.932c-0.276,0.099 -0.892,-0.131 -0.966,-0.158c-1.247,-0.465 -1.179,0.122 -2.426,0.25l-0.227,-1l-0.455,-1l-0.204,-1l-0.291,-1c-0.1,-0.668 -0.201,-1.336 -0.301,-2.004Z" style="fill:#03233e;"/><path d="M230.635,161.516c2.977,1.06 7.527,-0.33 8.149,-0.071c0.359,0.15 0.429,0.71 0.788,0.86c1.754,0.151 2.098,0.567 1.418,1.279c-0.526,0.551 -0.804,1.351 -1.435,1.778c-0.47,0.319 -0.453,-0.541 -0.927,-0.177c-0.881,0.678 -0.274,1.101 -1.128,1.758l-1.008,-0.443l-0.992,-0.787l-1,-0.496l-1,-0.681l-1,-0.298l-1,-0.217c-0.731,-1.161 -0.796,-1.117 -0.865,-2.504Z" style="fill:#02233d;"/><path d="M201.344,69.524c0.037,0.076 0.882,0.631 0.98,2.019c0.639,9.114 1.136,8.993 0.947,9.754c-0.337,1.354 -2.884,2.415 -3.537,-1.787c0.686,-3.72 1.904,-7.921 1.61,-9.986Z" style="fill:#22aa54;"/><path d="M116.396,90.472c-2.749,6.725 -7.702,-3.174 -2.97,-4.256c3.017,-0.69 2.974,3.841 2.97,4.256Z" style="fill:#52ca78;"/><path d="M37.201,56.101c0.321,-0.088 2.922,-0.801 4.163,-0.118c0.457,0.252 1.859,2.695 0.954,3.294c-0.601,0.398 -1.324,0.594 -1.913,1.009c-0.917,0.646 -1.02,1.098 -1.368,0.492c-1.309,-2.279 -1.749,-1.721 -1.839,-1.913c-0.196,-0.413 0.262,-0.956 0.067,-1.369l-0.063,-1.396Z" style="fill:#00263f;"/><path d="M230.635,161.516c2.094,-3.23 3.936,-1.943 7.9,-2.177c3.354,-0.198 1.639,1.702 1.037,2.966c-0.359,-0.15 -0.429,-0.71 -0.788,-0.86c-0.622,-0.26 -5.173,1.131 -8.149,0.071Z" style="fill:#05213b;"/><path d="M373.51,96.821c0.467,0.473 0.658,-0.016 1.101,0.433c0.082,0.084 0.056,0.093 0.759,1.257c-1.914,3.187 -1.63,3.713 -2.87,3.587c-0.465,-0.047 -1.168,-2.178 -1.372,-2.533c-1.286,-2.242 0.357,-1.856 2.381,-2.744Z" style="fill:#042440;"/><path d="M399.901,65.5c0.426,0.016 0.372,-1.016 0.798,-1c0.215,0.008 -0.409,0.714 1.883,1.918c2.416,1.269 0.735,1.883 -0.081,4.535c-0.342,-0.169 -1.631,-0.809 -3.284,-3.453l-0.063,-1l0.748,-1Z" style="fill:#04223d;"/><path d="M259.693,92.498c1.666,6.928 0.213,15.686 -0.01,17.03c-0.142,-1.012 -0.284,-2.025 -0.425,-3.037l-0.017,-3.992l0.031,-4.993l0,-2.001c0.14,-1.003 0.281,-2.005 0.421,-3.008Z" style="fill:#5a6974;fill-opacity:0.52;"/><path d="M2.104,119.463c0.261,0.698 0.522,1.397 0.783,2.095c-0.375,6.646 -0.128,6.571 -0.818,9.938c-0.096,-0.732 -0.785,-1.3 -0.882,-2.033c-0.841,-6.391 0.565,-9.278 0.917,-10.001Z" style="fill:#98a0a6;fill-opacity:0.36;"/><path d="M189.051,44.486c-0.152,0.299 -1.9,3.736 -3.953,1.396c-1.468,-1.674 1.571,-7.28 3.953,-1.396Z" style="fill:#47c871;"/><path d="M269.449,29.109c1.371,2.015 1.218,2.036 1.223,4.429c-1.062,0.883 -0.987,1.752 -2.132,0.862c-2.763,-2.149 -1.738,-2.982 0.91,-5.291Z" style="fill:#1ab04c;"/><path d="M352.281,47.932c2.493,0.181 2.523,0.006 4.547,1.427c-3.66,6.389 -4.504,-1.048 -4.547,-1.427Z" style="fill:#032037;"/><path d="M139.311,109.376c0.37,0.174 1.498,-0.806 2.939,2.124c0.725,1.472 0.631,1.887 0.594,2.054c-0.096,0.427 -3.671,3.236 -3.533,-4.178Z" style="fill:#1db14f;"/><path d="M87.297,127.938c0.472,0.516 0.944,1.033 1.417,1.549c-0.342,0.192 0.575,0.961 0.233,1.153c-0.471,0.264 -1.03,-0.401 -1.57,-0.403c-1.85,-0.008 -1.752,0.349 -1.902,0.314c-0.877,-0.205 -3.527,-4.189 1.822,-2.613Z" style="fill:#24a759;"/><path d="M96.814,103.507c1.062,4.93 0.507,4.942 0.491,12.955c-0.283,-0.655 -0.566,-1.311 -0.85,-1.966c-0.332,-3.223 -0.179,-3.167 -0.199,-7.993c0.186,-0.999 0.372,-1.998 0.557,-2.996Z" style="fill:#67717e;fill-opacity:0.55;"/><path d="M408.972,59.54c2.029,5.092 0.485,8.132 0.29,8.914c-0.454,-0.954 -0.908,-1.908 -1.362,-2.862c0.454,-3.054 0.614,-2.948 1.072,-6.052Z" style="fill:#959ba5;fill-opacity:0.34;"/><path d="M314.231,92.5c-0.001,8.001 -0.003,16.002 -0.004,24.003c-0.377,-5.085 -1.348,-8.666 0.004,-24.003Z" style="fill:#4c5055;fill-opacity:0.12;"/><path d="M328.635,111.453c0.086,0.236 1.081,2.952 1.081,2.952c0.554,1.48 0.707,1.348 1.161,2.917c-0.29,0.72 -0.58,1.439 -0.871,2.159c-1.14,-2.458 -1.311,-2.315 -1.891,-4.887c0.2,-0.73 0.152,-0.662 0.52,-3.141Z" style="fill:#959ca4;fill-opacity:0.29;"/><path d="M305.043,65.5l0.101,-1l0.181,-1c0.354,-0.029 -0.253,-1.031 0.101,-1.06c1.712,-0.141 5.021,3.144 1.14,3.926c-1.695,0.342 -1.239,-0.705 -1.523,-0.866Z" style="fill:#071d3c;"/><path d="M408.929,36.444c0.888,2.005 2.01,3.582 -0.087,8.021c-0.373,-2.603 -0.511,-2.473 -0.906,-5.065c0.576,-1.493 0.44,-1.466 0.993,-2.956Z" style="fill:#9199a6;fill-opacity:0.34;"/><path d="M348.353,55.793c-0.916,-2.542 -1.834,-2.496 -0.918,-4.293c0.58,-0.277 0.747,-1.123 1.327,-1.4c0.302,-0.144 2.56,1.955 1.907,2.49c-0.23,0.188 -0.972,-0.751 -1.927,0.91c-0.677,1.177 -0.384,2.263 -0.389,2.293Z" style="fill:#01253c;"/><path d="M198.715,139.648c-0.486,1.66 -0.068,1.878 -1.215,2.501c-2.169,1.178 -2.274,0.341 -3.726,-1.606c0.511,0.049 0.322,-1.343 0.832,-1.294c0.565,0.054 0.383,1.186 0.882,1.458c0.321,0.176 0.692,-0.597 1.012,-0.421l1,-0.109l1.215,-0.53Z" style="fill:#00243a;"/><path d="M341.449,68.602c-1.4,-1.299 -1.457,-1.829 0.151,-2.908c1.662,-1.114 3.347,1.486 2.378,2.174c-0.716,0.508 -1.813,0.226 -2.529,0.734Z" style="fill:#062143;"/><path d="M221.776,112.673c1.75,-2.786 3.68,-1.945 3.566,1.358c-2.298,0.51 -2.242,0.005 -3.566,-1.358Z" style="fill:#19b14c;"/><path d="M354.743,128.46l-0.191,1.056c-1.934,0.512 -1.92,0.588 -2.089,0.553c-4.968,-1.036 0.515,-2.985 1.787,-2.524c0.326,0.118 0.168,0.796 0.494,0.914Z" style="fill:#4ccc70;"/><path d="M39.39,181.984c2.846,0.674 2.831,0.658 3.074,0.728c0.585,0.168 0.434,0.338 1.03,0.51c-5.262,1.154 -6.737,0.119 -7.848,-0.174c1.894,-0.58 1.831,-0.456 3.743,-1.064Z" style="fill:#7d8393;fill-opacity:0.3;"/><path d="M89.846,27.529c0.469,6.965 0.936,6.908 0.066,17.835c-0.063,-16.421 -0.054,-16.409 -0.066,-17.835Z" style="fill:#3e4349;fill-opacity:0.21;"/><path d="M67.647,181.975c0.23,0.09 0.205,0.054 2.933,0.963c-0.033,0.013 -0.366,1.498 -7.074,0.31c0.6,-0.17 0.447,-0.345 1.036,-0.513c0.246,-0.07 0.23,-0.056 3.104,-0.761Z" style="fill:#7d8790;fill-opacity:0.32;"/><path d="M257.132,71.56c0.265,2.486 0.296,2.396 0.422,4.934c-0.094,1.009 -0.189,2.018 -0.283,3.027l-0.416,-1.072c-0.325,-1.159 -0.287,-1.107 -0.906,-2.098c0.457,-2.842 1.046,-4.421 1.183,-4.791Z" style="fill:#6d777d;fill-opacity:0.36;"/><path d="M112.611,159.354c-1.646,-2.426 1.976,-4.785 1.803,-1.889c-0.069,1.148 0.025,1.089 0.05,2.201c-0.618,-0.104 -1.235,-0.208 -1.853,-0.312Z" style="fill:#052137;"/><path d="M90.503,162.762c-2.459,-0.291 -2.761,-0.026 -4.003,-2.212l1,-0.608l1,0.245c0.668,0.858 1.335,1.716 2.003,2.574Z" style="fill:#041f3d;"/><path d="M128.666,47.514c-0.605,1.867 -0.181,2.647 -2.166,2.608c-10.213,-0.2 1.899,-2.557 2.166,-2.608Z" style="fill:#20ac50;"/><path d="M173.416,163.238c0.716,0.213 1.432,0.426 2.149,0.639c-1.812,0.807 -1.805,0.791 -1.956,0.871c-0.121,0.064 -0.123,0.266 -0.244,0.329c-0.975,-0.256 -1.951,-0.512 -2.926,-0.768c1.466,-0.658 1.392,-0.71 2.977,-1.071Z" style="fill:#798289;fill-opacity:0.35;"/><path d="M79.75,27.398c0.009,0.026 -0.001,0.001 1.31,3.248c-0.424,0.938 -0.847,1.877 -1.271,2.815c-0.168,-0.967 -0.336,-1.934 -0.504,-2.9c0.155,-1.054 0.31,-2.108 0.465,-3.163Z" style="fill:#7f878b;fill-opacity:0.31;"/><path d="M167.634,164.937c0.935,-0.209 1.87,-0.419 2.805,-0.628c0.975,0.256 1.951,0.512 2.926,0.768c-1.611,0.389 -1.587,0.224 -3.048,1.046c-0.894,-0.395 -1.789,-0.791 -2.683,-1.186Z" style="fill:#7e8793;fill-opacity:0.33;"/><path d="M134.495,1.793c3.67,0.003 7.339,0.006 11.009,0.009c-5.578,0.428 -5.486,0.509 -11.009,-0.009Z" style="fill:#43474b;fill-opacity:0.16;"/><path d="M104.691,6.903c0.889,0.379 1.778,0.758 2.667,1.138c-0.931,0.197 -1.861,0.395 -2.792,0.592l-2.153,-0.6c1.19,-0.458 1.099,-0.481 2.278,-1.129Z" style="fill:#848e98;fill-opacity:0.39;"/><path d="M373.51,96.821c2.284,0.043 2.19,0.262 3.99,1.621l-1,0.215l-1.13,-0.146c-0.703,-1.164 -0.677,-1.173 -0.759,-1.257c-0.443,-0.449 -0.634,0.04 -1.101,-0.433Z" style="fill:#03203d;"/><path d="M322.489,75.831c2.67,-0.068 5.34,-0.136 8.011,-0.204l-0.982,0.577c-2.343,-0.124 -4.686,-0.249 -7.028,-0.373Z" style="fill:#4e525a;fill-opacity:0.17;"/><path d="M359.437,55.461c2.774,2.245 3.068,1.973 3.063,2.278c-0.023,1.405 -0.665,0.162 -1.938,-0.358c-0.343,-0.14 -0.776,0.386 -1.094,0.197c-0.146,-0.087 -0.002,-0.152 -0.03,-2.118Z" style="fill:#0a233a;"/><path d="M43.436,42.597c-0.901,-0.13 -0.928,0.233 -1.758,-0.254c-0.178,-0.105 -1.878,-1.102 -1.811,-1.843c0.176,-1.942 0.816,0.115 2.346,1.312c0.635,0.497 0.608,0.39 1.224,0.784Z" style="fill:#169546;"/><path d="M91.5,141.552c0.041,-0.385 -0.535,-0.667 -0.494,-1.052c0.206,-1.959 3.356,0.057 1.757,1c-0.363,0.214 -0.9,-0.162 -1.263,0.052Z" style="fill:#1a9845;"/><path d="M147.839,67.564c0.287,0.645 0.574,1.29 0.861,1.934c-0.141,0.992 -0.283,1.985 -0.424,2.977c-0.585,-2.461 -0.471,-2.383 -0.437,-4.912Z" style="fill:#4d5a65;fill-opacity:0.6;"/><path d="M313.29,18.305c-0.083,0.226 0.473,1.04 -0.8,2.184c0,0 -1.832,0.93 -1.991,1.01c1.238,-1.747 1.384,-1.537 2.792,-3.194Z" style="fill:#75797e;fill-opacity:0.1;"/><path d="M337.974,145.1l-1.528,0.4l-0.723,-1c0.476,-0.224 0.302,-1.148 0.777,-1.372c0.259,-0.122 1.375,1.802 1.474,1.972Z" style="fill:#159345;"/><path d="M363.652,146.615c0.419,-0.617 0.429,-1.453 0.848,-2.07c0.884,-1.302 1.767,0.599 1.4,0.955c-0.6,0.582 -1.648,0.533 -2.248,1.115Z" style="fill:#1c9448;"/><path d="M193.345,45.872c-0.003,-0.01 -0.7,0.339 -0.591,-2.304c0.074,-1.803 1.832,-0.762 1.746,-0.092c-0.02,0.157 -0.585,-0.562 -1.485,1.305c-0.297,0.617 0.622,0.485 0.33,1.091Z" style="fill:#22ab4d;"/><path d="M360.398,102.28c0.776,0.073 1.326,-1.098 2.102,-1.024c1.581,0.149 -0.197,0.702 -0.629,2.244l-1.472,-1.22Z" style="fill:#198f42;"/><path d="M32.529,119.5c0.166,0.172 2.552,2.638 0.905,2.846c-2.106,0.266 -1.409,-0.839 -0.905,-2.846Z" style="fill:#23ac52;"/><path d="M187.591,146.239c-1.15,-0.363 -1.009,0.913 -2.145,0.554c-0.109,-0.034 -1.354,-0.427 -0.429,-1.366c0.422,-0.429 1.23,-0.211 1.804,-0.03c0.363,0.114 0.407,0.727 0.77,0.842Z" style="fill:#031f38;"/><path d="M349.547,60.505c0.99,0.011 1.98,0.021 2.97,0.032c-1.92,1.417 -2.361,3.024 -3.538,0.974c-0.192,-0.334 0.759,-0.672 0.568,-1.006Z" style="fill:#55656e;fill-opacity:0.89;"/><path d="M206.732,140.378l-0.162,1.091c-1.208,-0.018 -1.152,0.061 -2.835,0.32c1.392,-0.938 1.316,-0.928 2.998,-1.411Z" style="fill:#646769;fill-opacity:0.08;"/><path d="M330.499,75.627c0.63,0.299 1.26,0.599 1.89,0.898c-1.441,-0.299 -1.336,-0.299 -2.872,-0.321l0.982,-0.577Z" style="fill:#595c62;fill-opacity:0.09;"/><path d="M92.416,168.406c-0.919,1.857 -0.833,1.925 -0.993,2.005c-0.528,0.265 -0.505,-0.356 -1.069,-0.073c1.032,-0.97 0.963,-0.905 2.062,-1.932Z" style="fill:#859099;fill-opacity:0.6;"/><path d="M259.271,97.507l-0.031,4.993c-0.33,-2.517 -0.509,-2.448 0.031,-4.993Z" style="fill:#444d52;fill-opacity:0.23;"/><path d="M68.363,15.685c0.068,0.032 1.273,-0.455 2.038,0.945c0.234,0.428 -0.137,0.436 0.099,0.869c-1.058,-0.921 -1.964,-1.671 -2.137,-1.815Z" style="fill:#808c95;fill-opacity:0.64;"/><path d="M94.286,80.519c-0.171,1.662 -0.341,3.324 -0.512,4.985l0.056,-4.002l0.456,-0.983Z" style="fill:#4c5159;fill-opacity:0.16;"/><path d="M255.482,15.487c-0.893,1.072 -1.636,1.977 -1.778,2.149c0.298,-0.599 -0.418,-0.538 -0.143,-1.091c0.078,-0.157 0.142,-0.078 1.92,-1.058Z" style="fill:#7d8792;fill-opacity:0.64;"/><path d="M347.488,1.793l3.051,-0.003l0.976,0.831c-2.797,-0.343 -2.782,-0.323 -3.021,-0.371c-0.579,-0.115 -0.419,-0.34 -1.006,-0.457Z" style="fill:#494e52;fill-opacity:0.18;"/><path d="M111.553,6.691c0.064,-0.025 -0.167,-1.741 2.863,-0.628l-2.863,0.628Z" style="fill:#79828d;fill-opacity:0.58;"/><path d="M333.753,108.752c-0.179,-1.227 -1.498,-1.885 -0.253,-1.739c0.901,0.106 0.985,0.687 1,0.788c0.108,0.74 -0.845,0.279 -0.747,0.951Z" style="fill:#032239;"/><path d="M87.297,127.938c0.55,0.149 0.373,-0.529 0.926,-0.379c0.1,0.027 0.773,0.21 0.945,0.887c0.093,0.367 -0.548,0.674 -0.455,1.041c-0.472,-0.516 -0.944,-1.033 -1.417,-1.549Z" style="fill:#1faa54;"/><path d="M19.458,172.566c1.064,0.902 1.973,1.643 2.146,1.784c-0.541,-0.261 -0.525,0.299 -1.035,0.053c-0.155,-0.075 -0.082,-0.136 -1.111,-1.837Z" style="fill:#7b8692;fill-opacity:0.62;"/><path d="M252.015,48.607c0.2,0.952 0.4,1.904 0.599,2.856c-0.083,-0.217 -1.665,0.241 -0.599,-2.856Z" style="fill:#738089;fill-opacity:0.64;"/><path d="M39.668,14.767c-0.174,0.138 -1.085,0.861 -2.125,1.784c0.088,-0.147 1.101,-1.842 1.101,-1.842c0.311,-0.142 0.713,0.2 1.023,0.058Z" style="fill:#818e95;fill-opacity:0.62;"/><path d="M361.902,141.369c0.169,0.545 0.087,0.531 0.023,2.131c-0.008,-0.71 -0.016,-1.421 -0.023,-2.131Z" style="fill:#23ac53;"/><path d="M213.039,49.645c0.25,0.905 0.5,1.81 0.75,2.715c-0.271,-0.545 -1.567,-0.259 -0.75,-2.715Z" style="fill:#4c5056;fill-opacity:0.09;"/><path d="M365.458,1.828c1.016,0.114 2.033,0.228 3.049,0.341c-1.337,0.127 -2.675,0.255 -4.012,0.382l0.963,-0.724Z" style="fill:#4c5256;fill-opacity:0.23;"/><path d="M309.341,135.461c0.21,1.907 0.291,1.907 0.227,2.06c-0.312,0.745 -0.849,0.187 -1.163,0.938c0.312,-0.999 0.624,-1.998 0.936,-2.998Z" style="fill:#61727c;fill-opacity:0.61;"/><path d="M91.261,50.515l-0.055,3.991c-0.241,-2.032 -0.248,-1.942 0.055,-3.991Z" style="fill:#4c5054;fill-opacity:0.19;"/><path d="M354.681,174.821c0.717,-0.377 0.128,-0.857 0.84,-1.232c0.144,-0.076 0.145,0.043 1.954,0.581c-1.499,0.249 -1.408,0.207 -2.794,0.651Z" style="fill:#45494d;fill-opacity:0.12;"/><path d="M101.68,159.957c-0.327,0.928 -0.246,0.877 -0.877,1.742c0.292,-0.581 0.585,-1.161 0.877,-1.742Z" style="fill:#4a4d51;fill-opacity:0.06;"/><path d="M118.515,159.572c1.837,-1.073 1.811,-1.097 1.984,-1.159c1.841,-0.65 -0.273,0.357 -1.984,1.159Z" style="fill:#032037;"/><path d="M147.315,61.087c-0.847,0.16 -0.057,1.067 -0.971,1.239c-0.1,0.019 -1.897,0.358 -0.926,-0.881c0.397,-0.507 1.5,0.149 1.897,-0.358Z" style="fill:#03233e;"/><path d="M45.095,28.461c0.299,1.703 0.457,1.77 0.321,1.833c-0.461,0.213 -0.463,-0.013 -0.921,0.198c0.2,-0.677 0.4,-1.354 0.599,-2.03Z" style="fill:#30b658;"/><path d="M354.743,128.46c0.115,0.097 1.433,1.215 1.433,1.215c0.088,1.131 -0.49,-0.048 -1.624,-0.159l0.191,-1.056Z" style="fill:#56c977;"/><path d="M92.335,62.513c-0.17,0.998 -0.339,1.996 -0.509,2.994l0.027,-2.01l0.482,-0.984Z" style="fill:#4a4f53;fill-opacity:0.17;"/><path d="M256.855,78.449l0.416,1.072l-0.133,1.986c-0.094,-1.019 -0.189,-2.039 -0.283,-3.058Z" style="fill:#42474c;fill-opacity:0.16;"/><path d="M313.193,75.481l-0.009,2.021l-0.45,0.972c0.153,-0.998 0.306,-1.995 0.459,-2.993Z" style="fill:#494e51;fill-opacity:0.13;"/><path d="M323.215,141.492l0.034,3.006c-0.32,-1.548 -0.319,-1.464 -0.034,-3.006Z" style="fill:#55585c;fill-opacity:0.2;"/><path d="M69.643,57.02c0.619,-0.372 1.238,-0.744 1.857,-1.116c-0.155,0.186 0.545,1.037 -0.99,1.186c-0.289,0.028 -0.579,-0.099 -0.867,-0.071Z" style="fill:#022139;"/><path d="M273.556,33.528c0.382,-0.442 -0.135,-1.293 0.247,-1.736c0.887,-1.028 0.651,0.632 0.64,0.707c-0.107,0.753 -0.782,0.286 -0.887,1.028Z" style="fill:#21ab52;"/></g></svg>