<?xml version="1.0" encoding="UTF-8" standalone="no"?><!DOCTYPE svg PUBLIC "-//W3C//DTD SVG 1.1//EN" "http://www.w3.org/Graphics/SVG/1.1/DTD/svg11.dtd"><svg width="100%" height="100%" viewBox="0 0 878 612" version="1.1" xmlns="http://www.w3.org/2000/svg" xmlns:xlink="http://www.w3.org/1999/xlink" xml:space="preserve" xmlns:serif="http://www.serif.com/" style="fill-rule:evenodd;clip-rule:evenodd;stroke-linejoin:round;stroke-miterlimit:2;"><g id="Background"><path d="M434.12,493.752c-5.557,-4.578 -18.554,6.229 -35.392,-10.565c-2.512,-2.506 -7.397,4.008 -11.734,6.281c-11.701,6.134 5.974,5.631 15.914,26.384c9.03,18.852 8.124,55.618 -14.122,73.441c-33.728,27.022 -80.245,18.146 -102.285,-0.963c-3.647,-3.162 -3.854,-5.475 -5.716,-3.006c-11.454,15.183 -15.676,16.33 -54.703,22.002c-76.396,11.102 -72.34,-19.094 -76.634,-72.614c-6.177,-77.004 -8.224,-97.825 23.766,-105.699c23.371,-5.753 28.636,-5.425 24.658,-7.931c-25.862,-16.289 -23.194,-19.242 -32.908,-37.189c-3.204,-5.918 -5.042,50.728 -68.812,53.001c-80.847,2.882 -99.676,-116.525 -28.991,-106.248c27.735,4.032 16.622,48.092 30.773,33.883c13.866,-13.923 -19.864,-86.191 -6.296,-108.508c11.9,-19.572 38.193,-12.268 35.182,-18.143c-3.885,-7.579 -2.401,-8.019 -6.597,-15.224c-1.649,-2.832 -13.451,32.065 -61.091,30.379c-66.346,-2.348 -76.312,-81.349 -32.678,-109.825c12.043,-7.859 14.365,-7.251 15.76,-21.465c0.607,-6.189 5.276,-8.288 0.143,-13.238c-17.941,-17.302 -5.941,-65.042 32.637,-53.316c8.466,2.573 32.24,21.491 12.463,53.693c-2.652,4.318 26.196,35.258 -16.509,69.52c-1.04,0.834 -19.771,15.863 -6.81,15.211c4.782,-0.24 9.848,-32.488 43.845,-18.52c1.094,0.449 7.363,5.697 7.208,1.65c-2.868,-74.903 -24.258,-116.419 31.945,-121.093c10,-0.832 60.344,-7.927 90.648,30.373c15.532,19.63 13.477,40.257 18.218,27.659c16.516,-43.889 55.248,-52.182 54.504,-54.998c-0.525,-1.987 -4.389,-16.616 1.135,-25.659c1.655,-2.709 23.075,-28.434 28.656,-30.981c25.478,-11.627 51.013,29.476 30.498,45.259c-5.22,4.016 -20.495,12.165 -16.414,14.023c26.415,12.028 31.215,16.204 45.148,42.14c8.858,16.488 -13.734,-51.478 42.626,-46.842c34.953,2.875 42.318,69.175 41.11,31.113c-0.334,-10.509 -2.289,-37.635 33.874,-36.808c34.309,0.784 27.856,34.019 32.104,22.885c3.315,-8.688 4.524,-20.845 49.894,-19.834c25.904,0.577 66.239,12.013 80.432,48.559c7.462,19.212 -8.121,-34.864 27.625,-43.595c0.44,-0.107 65.094,-10.604 82.997,-3.32c17.886,7.277 24.736,57.35 -6.119,64.853c-2.627,0.639 -10.179,-1.005 -3.984,6.308c0.642,0.757 14.373,23.132 0.098,45.977c-4.902,7.845 20.173,-4.948 26.097,28.955c4.404,25.201 -10.895,35.936 -7.045,36.72c13.504,2.752 32.781,-3.162 45.768,38.346c3.039,9.713 33.111,105.827 32.679,122.943c-0.846,33.546 -55.78,47.471 -65.801,9.087c-2.16,-8.274 0.481,-11.146 -5.775,-11.678c-20.902,-1.779 -23.119,-0.833 -23.727,0.719c-7.343,18.742 -5.344,21.888 -23.996,29.275c-6.471,2.563 28.647,9.521 27.501,53.603c-1.278,49.123 -45.466,50.15 -50.423,60.193c-3.901,7.904 -4.722,7.106 -9.844,14.158c-0.79,1.087 18.215,45.104 -18.441,54.818c-33.189,8.795 -48.157,-31.667 -32.542,-53.79c4.072,-5.769 9.684,-5.407 6.42,-12.329c-3.402,-7.215 -4.426,-28.311 10.14,-42.99c0.399,-0.402 6.131,-6.178 3.032,-6.398c-57.887,-4.101 -31.579,-58.41 -4.948,-69.335c21.423,-8.789 41.455,-2.653 36.529,-8.071c-8.752,-9.627 -8.536,-11.781 -10.625,-10.18c-40.254,30.831 -61.59,15.019 -63.103,22.915c-0.272,1.421 6.121,14.39 2.133,32.034c-4.891,21.643 -31.854,16.796 -24.494,23.416c10.128,9.109 10.448,32.256 3.115,43.37c-1.122,1.701 -6.886,5.821 1.307,6.107c31.695,1.107 31.839,52.337 10.85,61.789c-0.691,0.311 -100.192,30.128 -113.029,-13.642c-7.89,-26.902 -3.204,-97.936 -5.681,-98.426c-2.079,-0.411 -1.551,2.704 -26.085,4.634c-10.528,0.828 18.351,87.574 -9.293,107.4c-16.741,12.006 -40.03,7.017 -48.608,-0.851c-14.236,-13.058 -10.632,-35.44 -8.142,-90.815c0.217,-8.304 0.504,-8.111 -0.04,-10.985l-141.62,-241.484c20.314,18.537 7.433,39.803 14.589,33.402c2.703,-2.418 -1.224,-4.831 14.54,-24.544c7.716,-9.649 20.772,-14.406 8.517,-14.41c-41.78,-0.012 -64.609,-26.042 -72.541,-44.194c-2.897,-6.629 -3.814,-13.672 -6.661,-6.868c-20.928,50.014 -71.329,44.976 -48.937,50.568c51.373,12.829 7.765,75.871 23.375,104.381c4.824,8.811 23.05,6.383 16.366,-41.805c-0.81,-5.84 -18.747,-61.609 31.389,-62.464c11.952,-0.204 17.474,4.821 19.363,5.934l141.62,241.484l-176.27,15.01c4.503,4.987 1.414,8.337 -0.116,9.906c-1.926,7.414 -1.977,7.236 -5.711,14.019c-2.589,4.703 1.737,2.289 7.151,2.766c10.154,0.895 12.867,9.701 17.393,0.468c7.623,-15.55 23.504,-11.349 15.944,-17.621c-33.548,-27.833 -12.849,-70.514 -11.143,-73.434c18.077,-30.934 56.921,-25.445 49.399,-31.738c-29.473,-24.661 -21.463,-33.455 -26.843,-38.158c-7.776,-6.796 5.905,21.272 -40.686,47.926c-4.754,2.72 4.27,5.076 6.955,18.831c8.3,42.525 -28.786,39.562 -23.795,43.767c9.761,8.223 9.603,9.276 11.451,23.269l176.27,-15.01l51.567,-265.67c-18.187,-27.426 -15.807,-29.621 -18.574,-30.264c-6.152,-1.428 15.221,49.385 -33.95,46.539c-18.718,-1.084 4.727,6.766 10.624,24.486c8.937,26.855 -10.845,40.363 -8.668,41.92c11.515,8.235 12.756,7.729 17.359,22.81c1.776,5.819 2.135,-2.263 27.603,-70.864c8.658,-23.322 19.762,-21.61 15.965,-24.886c-5.41,-4.666 -5.526,-4.289 -10.358,-9.742l-51.567,265.67l282.51,-169.409c7.828,8.408 8.027,8.319 12.006,19.189c2.268,6.197 2.341,-2.51 32.884,-75.644c8.563,-20.503 18.581,-24.554 12.598,-23.875c-65.926,7.482 -73.541,-0.463 -69.679,3.567c1.936,2.02 20.823,13.373 19.232,49.135c-0.793,17.837 -8.832,23.376 -7.041,27.629l-282.51,169.409l155.678,-224.062c1.654,-10.006 0.661,-10.457 6.829,-18.611c1.666,-2.203 2.361,-3.547 -0.413,-3.685c-38.686,-1.929 -39.749,-5.29 -49.4,-23.37c-1.34,-2.511 -4.109,4.367 -6.888,7.52c-4.573,5.19 -0.5,5.498 4.957,9.56c6.458,4.807 13.653,10.162 39.546,92.534c8.035,25.562 0.757,-10.76 5.369,-63.949l-155.678,224.062l95.495,-68.48c3.016,3.662 2.068,4.128 5.19,7.812c0.785,0.926 1.144,0.412 13.102,-7.653c4.173,-2.815 -8.779,-3.939 -13.779,-23.69c-0.407,-1.607 -0.462,-9.334 -5.999,-9.639c-15.581,-0.859 -21.867,-0.387 -22.623,1.795c-3.947,11.396 -4.058,11.115 -9.153,21.887c-3.875,8.194 10.392,-8.361 33.263,9.488l-95.495,68.48l-95.441,-360.561c-22.741,-14.738 -29.13,21.137 -23.688,31.621c11.74,22.614 42.977,-2.726 23.688,-31.621l95.441,360.561l249.561,-271.892c-3.574,-21.209 -1.901,-21.372 -2.541,-23.12c-0.929,-2.539 -2.446,1.003 -2.535,1.21c-12.198,28.479 -41.067,33.872 -24.442,34.384c33.52,1.032 44.394,13.007 38.133,4.345c-5.201,-7.195 -5.55,-6.984 -8.615,-16.82l-249.561,271.892l186.505,-328.526c18.443,-22.341 -5.59,-44.266 -10.556,-39.579c-2.806,2.648 -1.609,35.952 -1.497,39.079c0.399,11.101 7.198,4.509 12.053,0.501l-186.505,328.526l-241.464,-356.785c-0.748,-1.12 -6.677,-10 -12.501,-11.268c-4.99,-1.086 -5.103,0.865 -4.643,6.006c3.337,37.251 2.551,39.551 5.621,38.879c20.168,-4.416 12.33,-30.891 11.523,-33.617l241.464,356.785l-6.576,-81.534c-30.354,22.929 -43.704,11.696 -39.054,18.366c4.639,6.654 5.988,11.813 10.726,5.205c14.609,-20.375 66.587,-9.538 53.221,-18.445c-12.338,-8.222 -12.204,-17.736 -16.276,-13.592c-4.067,4.14 -3.78,4.277 -8.617,8.466l6.576,81.534l-46.532,-275.646c-10.014,11.004 -19.277,15.767 -9.443,15.503c22.668,-0.611 36.033,9.41 28.345,-2.096c-11.556,-17.295 -0.574,-45.723 -9.839,-27.029c-3.699,7.464 -4.207,6.945 -9.064,13.622l46.532,275.646l-64.494,-186.562c-20.726,30.707 5.128,61.708 0.35,44.6c-8.906,-31.888 11.879,-39.06 15.126,-40.18c6.326,-2.183 10.166,-0.936 7.576,-4.568c-7.768,-10.892 -21.556,-0.932 -23.051,0.148l64.494,186.562l-277.994,-244.521c-7.275,-0.045 -7.724,-0.531 -7.98,0.505c-0.166,0.676 0.029,0.639 3.603,8.177c2.663,5.618 7.024,34.956 8.375,26.811c3.774,-22.743 4.978,-22.41 12.578,-34.148c1.571,-2.427 -4.318,-1.124 -16.576,-1.345l277.994,244.521l218.487,-132.036c2.597,11.2 21.212,-1.959 10.588,-4.132c-10.874,-2.225 -10.142,1.484 -10.588,4.132l-218.487,132.036l286.742,-10.464c6.378,-5.53 0.745,-5.716 0.287,-5.713c-0.44,0.003 -6.178,-0.766 -11.618,8.313c-2.509,4.186 10.496,-2.19 11.331,-2.6l-286.742,10.464l157.468,-80.589c-0.41,0.382 -6.228,5.81 -3.338,6.158c1.008,0.122 14.979,1.806 12.458,-2.45c-3.288,-5.552 -4.369,-8.145 -9.121,-3.708l-157.468,80.589l-101.634,47.533c11.221,5.432 11.231,0.069 10.609,-0.51c-2.72,-2.534 -20.631,-10.709 -10.609,0.51l101.634,-47.533l218.515,-197.581c-3.401,9.07 13.306,2.318 7.36,-0.104c-3.751,-1.529 -6.824,-0.139 -7.36,0.104l-218.515,197.581l-176.27,15.01c-0.039,3.302 -0.077,6.604 -0.116,9.906c1.53,-1.569 4.619,-4.92 0.116,-9.906l176.27,-15.01Z" style="fill:#042b42;fill-opacity:0.99;"/><path d="M592.145,61.174l4.992,0.021l1.01,1.974l1,0.083l1,0.014l1,0.125l1,0.055l1,0.044l1,0.014c2.535,0.669 2.397,0.568 5,0.827l1,0.1c1.573,0.649 16.363,6.751 21.015,3.26c9.52,3.844 9.301,3.846 18.105,8.827l-1.12,1.369l1,0.866l1,0.615c3.487,3.489 3.013,6.086 7.379,3.994c21.04,22.612 36.236,70.277 6.815,116.527c-0.591,0.159 -0.603,-1.553 -1.194,-1.394c-4.864,1.306 -2.8,5.203 -2.568,5.642c-3.023,3.214 -2.804,3.172 -6.011,6.047c-3.37,-1.747 -7.661,2.031 -6.18,4.907c-15.901,9.655 -19.694,12.721 -48.269,16.239c-19.424,0.562 -21.494,0.191 -32.786,-3.068c-12.57,-7.491 -13.545,-10.054 -12.524,-79.535c1.062,-72.281 2.58,-74.8 5.906,-80.318c4.529,2.065 3.968,-1.162 8.433,-2.928l1,-0.129c2.778,-0.657 2.759,-0.659 3,-0.71c0.49,-0.104 0.278,0.1 1,-0.054c0.484,-0.037 3.959,-0.304 6,-0.927l1,-0.061l1,-0.135l1,-0.011l1,-0.071l1,-0.009l1,-0.063l1,0.06l1,0.09l1,-0.144l1,-0.092c0.666,-0.685 1.332,-1.37 1.998,-2.055l28.481,104.053c18.443,-22.341 -5.59,-44.266 -10.556,-39.579c-2.806,2.648 -1.609,35.952 -1.497,39.079c0.399,11.101 7.198,4.509 12.053,0.501l-28.481,-104.053Z" style="fill:#1fa454;"/><path d="M605.899,252.46c14.008,-11.052 59.076,-19.124 93.418,1.048c-2.06,4.246 0.758,3.559 4.309,6.761c0,0 1.758,-0.759 1.911,-0.825c15.834,20.931 8.62,38.829 3.985,48.45c-3.56,0.237 -3.129,1.059 -4.902,4.178c-0.086,0.151 0,0 0.94,1.961c-0.559,0.614 -4.765,5.243 -7.116,7.556c2.156,1.203 4.313,2.407 6.469,3.61c16.787,11.184 15.791,17.573 17.754,33.539l-1.696,0.999l-0.264,1c-2.248,7.373 -6.781,39.548 -70.547,42.35c-56.869,2.499 -49.08,-31.823 -50.586,-37.35c-0.158,-0.579 -1.341,-0.417 -1.499,-0.996c-0.344,-34.457 -2.278,-92.54 2.627,-105.195c3.478,1.669 3.165,-0.256 4.977,-3.808l0.902,-1l0.565,-0.57l-1.248,-1.707l46.708,109.256c2.597,11.2 21.212,-1.959 10.588,-4.132c-10.874,-2.225 -10.142,1.484 -10.588,4.132l-46.708,-109.256l46.737,43.711c-3.401,9.07 13.306,2.318 7.36,-0.104c-3.751,-1.529 -6.824,-0.139 -7.36,0.104l-46.737,-43.711Z" style="fill:#1fa754;"/><path d="M172.119,62.193l1.027,1.929l1,0.223l1,0.017l1,0.097l1,0.185l1,0.098l1,0.146l1,0.145l1,0.324l1,0.138l1,0.105l1,0.152l1,0.364l1,0.131l1,0.262l1,0.172l1,0.296c0.667,0.088 1.333,0.177 2,0.265c2.588,0.98 2.458,0.941 5.126,2.013c2.588,1.04 2.62,0.593 4.982,-0.784c40.753,16.835 43.7,48.723 47.218,74.249l-1.79,1.017l-0.05,1l0.018,1l-0.107,1l-0.043,1c-0.003,1.593 -2.858,41.622 -33.59,60.612c-9.819,6.067 -62.875,30.996 -80.294,2.177c-0.454,-0.902 0.383,-1.213 -4.55,-11.777c-3.919,-36.788 -9.521,-103.613 -9.453,-116.968l1.896,-1.043l0.158,-1l0.034,-1l0.173,-1l0.372,-1l0.576,-1c1.685,-1.784 1.487,-1.664 3.088,-3.271c1.679,-1.686 0.029,-1.838 0.046,-2.982c15.407,-8.425 33.939,-7.351 47.163,-7.289l20.537,74.773c-0.748,-1.12 -6.677,-10 -12.501,-11.268c-4.99,-1.086 -5.103,0.865 -4.643,6.006c3.337,37.251 2.551,39.551 5.621,38.879c20.168,-4.416 12.33,-30.891 11.523,-33.617l-20.537,-74.773Z" style="fill:#20a954;"/><path d="M343.229,66.297c37.668,11.672 51.544,29.038 55.751,74.444l-1.297,0.995l-0.108,1l-0.036,1l-0.081,1l-0.088,1l-0.118,1l-0.123,1l-0.277,1l0.029,1l-0.161,1c-19.274,103.636 -130.904,84.709 -136.801,-1c-0.115,-1.671 -0.542,-1.308 -1.247,-3.01c1.554,-23.979 4.291,-38.29 23.366,-60.092l1.107,1.399c4.87,-3.426 4.517,-3.609 9,-7.73c0.758,-0.522 1.516,-1.044 2.275,-1.567l-1.448,-1.269c9.832,-5.888 9.605,-5.931 20.125,-9.883c3.078,2.112 6.651,-0.23 17.049,-0.476c1.667,0.059 3.333,0.118 5,0.177l1,0.067l1,0.029l1,0.114l1,0.237l1,0.141l1,0.005l1,0.053l1.083,-1.635l-4.55,66.894c-22.741,-14.738 -29.13,21.137 -23.688,31.621c11.74,22.614 42.977,-2.726 23.688,-31.621l4.55,-66.894Z" style="fill:#20ab54;"/><path d="M507.075,59.279c39.356,-5.655 31.716,17.014 32.56,63.446c0.548,30.137 -0.432,66.133 -0.493,69.012l-0.996,0.176l-1.23,-0.176l-0.089,1l0.016,1l-0.249,1l-0.159,1l-0.254,1c-0.647,7.699 -7.406,15.819 -12.158,17.674c-30.135,11.769 -44.723,-39.33 -68.143,-74.483c-3.852,-5.781 -6.552,1.596 -4.555,6.792c1.893,4.926 1.767,5.017 5.247,52.984c-0.216,0.608 -1.42,0.424 -1.636,1.032c-0.552,1.551 3.124,16.067 -13.795,17.904c-26.857,2.916 -27.686,-14.955 -28.439,-25.904l-0.064,-1l-0.055,-1l0.006,-1l-0.031,-1l-0.102,-1l-0.106,-1l-0.076,-1l-0.048,-1l-0.206,-1l-0.051,-1l-0.081,-1l-0.095,-1l-0.063,-1l-0.047,-1l-0.083,-1l-1.222,-1.002c-0.882,-97.656 -4.272,-115.562 32.841,-112.448l-0.072,1.891l1,0.362c0.733,0.25 0.664,-0.046 1.373,0.197c0.132,0.045 -0,-0 1.627,0.645c4.747,2.749 4.232,3.199 9,6.258l0.661,1.097c0.146,0.341 0.477,0.066 2.772,3.713c1.037,1.648 1.149,1.914 2.869,1.113c6.241,11.061 6.103,10.908 12.102,21.96l-1.437,1.214c2.393,4.32 0.919,8.014 5.365,5.841c16.378,31.095 20.442,43.566 19.811,33.164c-2.826,-46.574 -8.226,-59.81 -3.563,-75.218c1.313,0.643 1.164,2.137 1.922,0.942c3.157,-4.979 4.281,-3.489 9.497,-6.111l1,-0.196l-0.072,-1.879Z" style="fill:#20ab54;"/><path d="M237.188,427.203c12.322,0.225 19.286,-1.699 24.226,13.477c2.434,11.393 3.41,15.011 -6.042,23.493c-13.166,6.224 -20.663,3.998 -44.268,7.312c-11.152,1.566 -7.441,6.023 -6.672,17.199c0.673,9.795 37.189,-8.918 43.426,10.141c9.873,30.166 -24.253,26.396 -32.672,27.274c-11.086,1.157 -8.169,5.546 -6.704,16.595c2.683,20.233 58.065,-17.666 64.784,13.016c5.55,25.344 -3.863,33.765 -69.132,38.554c-4.572,-4.368 -5.401,-1.971 -11.988,-2.108l-1,0.092l-1.021,1.878c-27.924,-3.108 -26.207,-13.01 -29.511,-44.425c-6.507,-87.093 -8.919,-95.215 0.315,-107.154c0.518,-0.017 0.529,1.398 3.906,-0.272c1.73,-0.855 0.938,-1.228 0.124,-2.885c7.831,-3.418 7.808,-2.95 16.115,-5.058c0.66,0.125 0.411,1.582 1.071,1.706c0.318,0.06 0.105,0.05 7,-1.365l1,-0.147l1,-0.226l2,-0.204l1,-0.271l1,-0.126l1,-0.003c5.76,-0.455 5.518,-0.576 6,-0.602l1,-0.159l1,-0.31c4.152,-0.269 3.974,-0.423 8,-0.717l1,-0.19c0.53,-0.062 0.229,-0.388 0.946,-0.473c0.403,-0.047 0.374,-0.029 5.054,-0.396l1,-0.135l1,-0.002l1,-0.15l1,-0.135l1,-0.086l1,-0.074l1,-0.143l1,0.058l1,-0.203l1,-0.129l1,-0.001l1,-0.168l1,-0.06l1,-0.124l1,-0.196l1,-0.063l1,-0.081l1.042,-1.954Z" style="fill:#1ea354;"/><path d="M819.297,250.453l-1.43,1.284c0.427,0.249 0.854,0.498 1.28,0.747c3.106,2.499 2.77,4.59 6.484,2.841c6.53,8.569 10.131,13.295 40.906,128.302c-5.086,5.727 0.05,13.547 -13.583,19.621c-29.837,13.294 -28.347,-21.096 -32.063,-27.354c-3.492,-5.881 -41.645,-5.319 -42.724,-5.07c-9.493,2.184 -10.183,16.194 -10.35,16.836c-6.818,26.252 -42.529,11.985 -37.484,-9.924l-0.031,-1l0.088,-1c-0.462,-0.684 -0.924,-1.368 -1.386,-2.053c1.922,-4.959 21.023,-54.244 24.116,-61.957c1.028,2.35 0.843,2.262 1.028,2.35c0.579,0.277 0.682,-0.082 3.229,-7.341l0.941,-3l0.329,-1l-1.709,-1.081c15.16,-39.112 19.977,-67.485 62.361,-51.203Z" style="fill:#20a955;"/><path d="M450.032,373.702c42.628,-124.385 43.907,-126.483 57.223,-130.637c41.903,-13.072 51.34,39.972 51.902,41.669c27.387,82.706 26.859,82.751 29.263,89.924c-2.982,3.34 -1.798,3.672 -2.131,8.09c-0.929,12.34 -19.003,17.317 -23.156,17.278c-15.422,-0.145 -18.147,-24.856 -18.247,-25.214c-1.524,-5.418 -1.403,-11.094 -40.71,-8.8c-11.866,0.692 -12.353,14.211 -15.866,22.797c-8.326,20.35 -39.928,5.012 -36.694,-13.072c-0.528,-0.678 -1.057,-1.357 -1.585,-2.035Z" style="fill:#20a855;"/><path d="M184.987,253.28l1.159,1.871l1,-0.172l1,-0.224l1,0.055l1,-0.165l1,-0.119l1,0.087l1,-0.062l1,0.099l1,-0.043c5.073,1.118 5.123,0.29 10,2.249c0.682,-0.41 1.365,-0.82 2.047,-1.23l1.203,0.63c-1.77,3.503 0.409,3.036 3.75,5.001l1,1.03l1,1.16l0.928,1.29l1.503,-1.251c9.432,26.064 -14.703,40.975 0.778,89.138l-1.465,1.113c1.103,3.685 1.056,5.337 4.679,3.718c11.108,10.777 42.502,9.939 28.303,-68.668c-1.678,-9.289 -8.115,-32.416 22.288,-34.905c16.336,-1.337 21.099,9.439 21.293,9.69c4.474,10.902 4.993,24.45 6.027,57.169c-0.208,0.658 -1.608,0.338 -1.816,0.997c-0.604,1.911 -0.209,4.004 -0.394,6c-8.413,90.841 -73.758,77.546 -88.158,71.074c-44.169,-19.849 -37.223,-69.014 -42.359,-78.084c2.058,-71.738 17.073,-66.562 19.232,-67.447Z" style="fill:#20a955;"/><path d="M339.869,254.338c1.209,-0.671 2.218,-1.668 3.427,-2.339c40.079,-22.254 84.917,-8.854 93.208,21.701c-0.057,0.045 -13.698,22.673 -29.446,15.221c-4.244,-2.008 -16.871,-20.182 -38.704,-9.753c-16.156,7.718 -19.864,42.611 -17.607,47.567c0.292,0.642 1.583,0.336 1.876,0.978c0.342,11.802 -0.344,15.473 5.865,27.817l-1.38,1.205c1.338,4.613 5.271,6.661 5.921,7c0.531,0.277 0.784,-1.499 1.315,-1.223c24.573,18.427 37.722,-3.269 39.373,-5.994c1.555,-1.215 1.586,-1.05 2.393,-2.796c9.171,-19.83 -21.6,-2.136 -26.555,-20.988l-1.668,-1.007c2.491,-10.265 3.462,-10.301 13.21,-14.16c0.684,0.533 1.367,1.067 2.051,1.6l1,-0.271l1,-0.241c0.869,-0.153 0.786,-0.013 11,-0.799l1,-0.202l1,0.064l1,-0.129l1,-0.115l1,-0.002l1,0.057l1,-0.112l1,-0.016l1,0.068l1,-0.104l1,-0.105l1,0.1l1,0.024l1,0.032l1,0.008l1,0.075l1,0.022l1,-0.022c2.677,0.835 2.803,0.251 5.14,1.811c5.251,3.506 7.797,2.215 8.412,1.903c1.353,1.593 2.706,3.187 4.059,4.78c4.459,10.799 3.022,11.061 3.668,22.755l-1.684,0.986l-0.974,1c-4.365,13.666 -14.074,55.356 -69.642,52.239c-15.35,-0.861 -28.39,-8.446 -30.612,-9.738c-9.775,-5.686 -20.433,-20.714 -21.895,-22.775c-0.371,-0.805 -5.238,-9.518 -9.13,-24.815c-2.513,-9.879 -0.807,-10.042 -4.032,-19.911c1.474,-18.73 1.498,-26.353 12.305,-48.216c0.588,-0.091 0.797,1.219 1.385,1.127c0.069,-0.011 3.611,-5.01 4.485,-6.911l-1.612,-1.092c2.601,-3.074 5.202,-6.149 7.803,-9.223c0.575,-0.141 0.748,1.328 1.324,1.186c0.736,-0.181 0.655,-0.161 7,-6.381c0.979,-0.832 0.233,-0.78 -0.277,-1.888Z" style="fill:#1fa955;"/><path d="M589.116,426.341c0.677,0.547 1.353,1.094 2.03,1.642l1,0.304l1,-0.097l1,-0.173c1.433,-0.176 1.273,-0.042 18,-1.24l1,-0.076l1,-0.065l1,0l1,0.222l1,-0.05l1,-0.1l1,0.022l1,-0.015l1,-0.052l1,0.012l1,-0.002l1,-0.036l1,-0.053l1,0.031l1,0.218l1,0.127l1,0.121l1,0.264l1,0.174l1,0.169l1,0.309l1,0.446l1,0.204l1,0.554l1.218,-1.886c1.46,0.959 10.225,6.717 9.943,19.441c-0.735,33.181 -57.903,12.762 -62.365,25.979c0.182,7.581 -0.502,7.503 1.61,14.601c-3.096,5.614 7.123,2.908 11.594,2.493l1,-0.192l1,0.03l1,-0.078l1,-0.056l1,-0.046l1,0.008l1,0.006l1,-0.023l1,-0.08l1,-0.029l1,0.256l1,-0.224l1,0.071l1,-0.07l1,-0.117l1,-0.139l1,0.065c3.392,0.493 3.427,0.105 5.204,1.18c1.569,0.949 1.554,-0.082 3.367,-0.179c4.812,5.928 6.042,7.482 4.916,19.631l-1.771,-0.104l-0.286,1c-1.084,2.18 -1.029,1.993 -1.084,2.18c-0.169,0.574 -1.324,-0.314 -4.705,5.82c-0.311,0.565 1.802,0.667 1.491,1.232c-18.558,6.944 -33.424,-2.352 -36.809,8.753c0.11,2.794 -0.986,12.549 2.886,16.538l-1.155,1.477l0.946,0.71l1,0.176l1,0.192l1,0.19l1,-0.005l1,-0.061l1,-0.022l1,-0.116l1,-0.045l1,-0.09l1,-0.028l1,-0.097c7.691,-0.207 9.237,-0.722 10,-0.975c4.181,-0.175 4.085,0.428 8,-0.993l1,-0.162l1,-0.169l1,0.073l1,-0.209l1,0.011l1,-0.15l1,-0.125l1,-0.171l1,-0.241l1,-0.026l1,-0.119l1,-0.443l1,0.528l1,-0.043l1,-0.228l1,0.283l1,-0.04l1,0.203l1,-0.203l1,0.392l1,0.508l1,0.315l1,0.276l1,0.594l1,0.582l1.357,-1.757c6.274,5.7 5.293,6.297 6.942,14.472c-2.907,3.751 -2.407,3.858 -4.798,7.738c-6.765,10.978 -52.973,14.743 -82.514,12.436c-3.108,-0.243 -22.043,-1.722 -23.398,-31.163l-0.062,-1l-0.098,-1l-0.183,-1l-0.117,-1l-0.282,-1l-0.182,-1l-0.075,-1l-0.018,-1l-0.094,-1l-1.419,-1.001c-0.164,-6.077 -1.28,-47.426 0.095,-75.993c1.701,-35.358 13.169,-32.694 51.815,-36.401Z" style="fill:#1fa654;"/><path d="M739.116,62.34c2.178,1.716 3.686,1.576 4.03,1.545c18.986,-1.756 18.808,-1.55 38,-1.237l1,0.274l1,0.332l1,0.194l1,0.572c2.679,1.517 2.667,1.333 4.838,3.717l0.452,1l0.711,0.885l0.515,1.115c0.52,-0.677 1.04,-1.354 1.561,-2.032c1.713,6.007 1.261,5.87 2.267,12.026l-1.701,1.006l-0.22,1c-9.783,27.458 -65.527,3.024 -58.8,25.073c0.787,2.579 1.333,2.12 1.858,2.954c-0,4.325 -0.371,8.645 -0.371,12.97c-0.001,16.136 34.677,-14.38 40.803,18.014l-1.38,0.99l-0.216,1c-0.554,1.605 -1.108,3.209 -1.662,4.814c-15.134,14.728 -43.666,-1.641 -39.875,16.229c0.579,2.728 2.202,2.662 2.444,2.953c0.065,1.134 -0.138,18.213 2.733,19.101c17.301,5.349 51.766,-20.231 58.376,13.895c-1.341,1.592 -1.561,2.74 -1.613,3.008c-2.74,14.262 -16.641,14.741 -28.713,16.101c-51.378,5.787 -70.138,4.598 -73.495,-23.101l-0.095,-1l-0.222,-1l-0.089,-1l-0.225,-1l-0.171,-1l-0.097,-1l-0.035,-1l-0.06,-1l-0.046,-1l-1.998,-1.011c-0.137,-6.638 -0.9,-43.441 0.343,-82.998c1.242,-39.55 12.576,-37.578 48.153,-41.389Z" style="fill:#21aa54;"/><path d="M334.128,423.315c5.58,0.045 28.904,-2.693 48.22,12.189c-1.531,3.719 0.451,3.367 3.321,6.232l1.879,-0.26c2.206,3.556 2.063,3.488 3.89,7.155l-1.2,1.105l0.249,1l0.103,1c-1.73,15.535 -21.598,19.63 -30.129,11.686c-2.112,-1.967 -25.545,-23.788 -35.902,-3.497c-3.425,6.709 1.509,12.098 2.214,12.868c6.611,17.117 30.147,12.144 55.694,29.517c-1.858,3.683 3.537,6.253 5.931,5.179c8.201,10.074 8.39,10.435 10.643,25.252l-1.326,0.995l-0.108,1l-0.082,1l-0.184,1l-0.324,1c-0.826,23.479 -40.016,61.341 -93.645,34.565c-4.227,-3.357 -8.454,-6.715 -12.68,-10.072c-6.145,-7.348 -2.348,-9.506 -9.032,-16.555c1.563,-5.328 1.108,-5.408 4.217,-10.161c2.042,0.972 1.908,1.095 2.042,0.972c3.973,-3.644 4.327,-2.768 9.227,-5.214c1.333,-0.187 2.667,-0.374 4,-0.56l1,-0.034l1,-0.001l1,-0.026l1,-0.099l1,0.055l1,0.261l1,0.235l1.08,-1.707c4.124,1.543 5.645,0.008 17.195,16.041l-1.276,1.779l1,0.724l1.041,0.796l0.959,0.572l1,0.393l1,0.406l1,0.238c0.321,0.109 3.676,1.243 4,1.395c7.604,3.576 18.404,-3.204 19.563,-8.004c0.398,-1.649 -0.395,-1.36 -0.895,-3.086c0.842,-24.801 -32.194,-13.561 -60.905,-40.681c-0.171,-0.566 1.408,-0.706 1.237,-1.272c-0.116,-0.385 -1.223,0.565 -3.104,-3.962c-0.277,-0.667 -0.896,-2.154 -4.186,-8l-0.427,-1l-0.28,-1l-0.319,-1l-0.275,-1l-1.813,0.071c-0.312,-3.016 -0.623,-6.033 -0.935,-9.049c1.023,-9.612 0.399,-9.593 2.911,-19.179l1.802,0.157l0.474,-1l0.388,-1l0.408,-1l0.563,-1l0.51,-1c1.58,-2.94 2.602,-3.975 2.891,-4.268c0.187,-0.189 0.64,-0.648 1.896,-2.732l0.903,-1l0.595,-0.728l-1.212,-1.454c7.915,-6.475 7.697,-6.474 17.06,-11.135c1.693,0.536 1.41,1.322 3.013,0.954c1.217,-0.279 12.289,-2.819 15.139,-3.81l1,-0.13l1,-0.071l1,-0.129l0.981,-1.917Z" style="fill:#1fa754;"/><path d="M133.306,249.298c-1.322,2.73 0.672,2.071 2.965,4.257c1.925,1.835 1.662,3.591 5.117,2.038c0.855,1.554 9.851,14.427 15.018,93.142c-0.278,0.587 -1.393,0.414 -1.672,1.001c-0.838,1.765 2.654,2.506 -4.765,23.947c-15.071,43.556 -91.1,61.656 -114.565,-8.947l-0.229,-1l-0.312,-1l-0.239,-1l-1.304,-0.995c0.255,-1.965 -1.205,-18.807 16.753,-22.4c37.85,-7.573 23.271,26.825 37.205,34.151c4.949,2.602 33.823,8.831 17.492,-67.67l1.834,-1.085l-0.204,-1l-0.167,-1l-0.148,-1l-0.288,-1l-0.132,-1c-2.498,-12.715 -1.944,-12.712 -6.151,-25l-0.434,-1l-0.337,-1l-0.325,-1l-1.604,-0.963c0.148,-3.344 1.269,-28.638 36.491,-20.475Z" style="fill:#20a955;"/><path d="M452.113,428.327c0.678,0.545 1.356,1.091 2.033,1.636l1,-0.083l1,-0.135l1,-0.053l1,-0.092l1,-0.162l1,-0.061l1,-0.014c0.296,-0.006 0.278,-0.02 4,-0.602l1,-0.066l1,-0.045l1,-0.056l1,0.043l1,-0.131c4.589,-0.208 4.561,-0.194 4.956,-0.224c0.607,-0.047 0.455,-0.272 1.044,-0.318l1,-0.039l1,-0.182l1,-0.036l1,-0.012c1.953,-0.382 6.439,-0.461 7,-0.47l1,-0.036l1,-0.108l1,-0.111l1,0.04l1,-0.182l1,-0.094l1,-0.049l1,-0.085l1,-0.009l1,0.005l1,-0.026l1,-0.053c11.122,-0.039 11.05,-0.264 16.719,0.219c7.376,4.927 7.397,5.776 9.547,4.828c0.644,1.518 4.81,11.346 4.305,20.158c-1.449,25.284 -25.255,21.421 -27.586,21.593c-3.366,0.217 -11.125,-1.77 -13.506,4.396c1.764,38.084 2.174,37.928 5.138,76.035l-1.089,0.991l-0.197,1l-0.19,1l-0.173,1l-0.264,1c-0.432,1.39 -1.847,20.795 -28.677,19.591c-19.223,-0.862 -20.275,-22.038 -20.402,-24.591c-0.154,-3.108 -1.445,-2.195 -1.977,-3.004c1.333,-34.094 2.288,-33.93 3.166,-67.996c0.356,-0.532 1.817,0.062 2.005,-3c1.072,-17.436 -7.976,-12.936 -19.819,-12.5c-1.952,0.072 -20.548,0.756 -20.976,-12.5l-0.177,-1l-0.168,-1l-0.015,-1l-0.115,-1l-0.151,-1l-1.545,-1.003c4.023,-19.389 16.32,-17.26 49.114,-20.406Z" style="fill:#1ea855;"/><path d="M709.09,427.381c0.686,0.592 1.371,1.184 2.057,1.777l1,-0.032l1,-0.013l1,-0.098l1,-0.161l1,-0.073l1,0.249l1,-0.222l1,0.066l1,0.18c1.365,0.121 11.899,1.058 17,2.075l1.095,-1.836c32.342,9.645 36.503,25.767 38.667,41.46l-1.21,0.984l-0.137,1l-0.098,1l-0.132,1l-0.275,1l-0.24,1c-0.271,1.323 -0.543,2.646 -0.814,3.968c0.489,0.677 0.978,1.354 1.467,2.032l-0.203,1c-0.375,1.28 -3.263,11.134 -6.888,15.178c-2.72,3.034 -6.11,5.495 -8.463,8.822c-0.352,0.497 1.734,0.697 1.383,1.194c-12.539,8.154 -12.627,7.624 -26.005,14.01c-3.663,-1.447 -5.548,-0.47 -3.865,3.09c-2.762,3.586 -2.795,3.53 -2.983,3.873c-6.096,11.125 -6.206,15.406 -25.387,12.261c0.7,-1.447 1.606,-2.211 0.006,-2.126c-6.52,0.345 -12.508,-8.239 -13.249,-9.301c-0.005,-0.187 -0.11,-4.088 -2.143,-0.934c-0.181,0.281 0.341,0.709 0.16,0.99c-0.659,-15.984 3.199,-20.423 15.182,-30.233l1.129,1.419c1.693,-0.589 8.293,-4.375 9,-4.781l1,-0.537l1,-0.423l0.687,-0.502l1.313,-0.665l-0.251,-1.834c6.523,-3.552 18.806,-7.607 17.076,-21.485c0.387,-0.468 -0.474,-1.243 1.176,-1.423c3.962,-0.43 1.28,-10.273 -3.371,-14.131c-15.796,-13.105 -31.353,13.075 -39.64,13.434c-13.242,0.573 -20.435,-11.026 -22.262,-12.948c10.333,-21.577 13.09,-23.69 39.216,-29.304Z" style="fill:#20a453;"/><path d="M84.571,131.753l-1.749,0.984l-0.458,1c-3.177,6.724 -2.857,6.828 -7.77,12.237c-2.888,2.099 -4.57,1.697 -3.295,5.088c-19.025,15.277 -26.899,22.222 -21.658,32.659c0.193,1.562 1.836,14.881 10.602,16.572c19.81,3.822 11.88,-20.081 29.934,-21.086c36.165,-2.013 18.678,34.713 17.252,37.708c-0.197,-0.68 -1.57,-0.499 -1.767,-1.179c-0.315,-1.089 2.162,-0.289 5.644,-13l0.235,-1c-0.543,-0.694 -1.086,-1.387 -1.629,-2.081c-4.694,9.681 -4.522,9.861 -12.793,16.054c-0.883,0.662 2.065,5.373 -18.927,10.256c-21.92,5.099 -58.38,0.533 -66.205,-34.229c-0.623,-2.768 -1.129,-2.446 -2.304,-4.991c1.092,-12.202 3.902,-24.228 18.103,-35.445c3.797,1.963 5.964,0.87 4.14,-2.89c2.24,-1.476 4.642,-2.695 6.882,-4.172c19.951,-13.15 3.376,-32.525 24.338,-32.858c23.719,-0.377 20.819,12.821 21.425,20.372Z" style="fill:#21aa54;"/><path d="M304.466,138.769c0.66,-2.108 5.599,-17.87 15.89,-22.584c26.728,-12.244 33.106,23.171 33.714,26.55c-0.114,3.621 -1.168,37.077 -24.933,37.802c-28.227,0.861 -24.994,-37.901 -24.671,-41.769l34.213,-5.578c-22.741,-14.738 -29.13,21.137 -23.688,31.621c11.74,22.614 42.977,-2.726 23.688,-31.621l-34.213,5.578Z" style="fill:#032a40;fill-opacity:0.99;"/><path d="M625.828,115.095c1.687,1.935 3.374,3.87 5.061,5.805c3.965,8.511 3.562,8.454 5.712,17.822c-0.515,7.641 0.841,31.493 -24.543,39.675c-14.216,4.582 -12.134,-3.744 -12.551,-18.676c-0.468,-16.738 -0.114,-47.812 1.821,-49.847c6.532,-6.868 22.838,4.102 24.501,5.221l-5.202,50.131c18.443,-22.341 -5.59,-44.266 -10.556,-39.579c-2.806,2.648 -1.609,35.952 -1.497,39.079c0.399,11.101 7.198,4.509 12.053,0.501l5.202,-50.131Z" style="fill:#032b40;fill-opacity:0.99;"/><path d="M189.842,113.191c5.295,4.279 5.084,4.222 9.027,9.702c12.118,25.553 2.329,38.518 -4.969,48.59c-3.391,2.68 -3.165,2.595 -6.892,5.01c-10.665,4.052 -14.946,5.611 -16.48,-5.805c-0.076,-0.569 -6.09,-54.18 -4.037,-59.829c2.443,-6.722 21.628,1.586 23.351,2.332l2.814,23.776c-0.748,-1.12 -6.677,-10 -12.501,-11.268c-4.99,-1.086 -5.103,0.865 -4.643,6.006c3.337,37.251 2.551,39.551 5.621,38.879c20.168,-4.416 12.33,-30.891 11.523,-33.617l-2.814,-23.776Z" style="fill:#032b41;fill-opacity:0.99;"/><path d="M450.032,373.702c0.528,0.678 1.057,1.357 1.585,2.035c-3.234,18.084 28.368,33.422 36.694,13.072c3.513,-8.586 3.999,-22.105 15.866,-22.797c39.306,-2.294 39.186,3.383 40.71,8.8c0.101,0.357 2.825,25.068 18.247,25.214c4.153,0.039 22.226,-4.938 23.156,-17.278c0.333,-4.418 -0.852,-4.751 2.131,-8.09c6.929,19.689 1.592,24.758 -12.199,32.239c-7.549,-3.686 -13.74,7.469 -25.657,-3.16l-1.701,1.256c-10.975,-14.743 -4.386,-28.517 -14.712,-28.768c-34.502,-0.841 -35.141,0.168 -35.839,2.577c-1.175,4.057 -5.916,47.892 -44.422,22.293c0.947,-2.115 0.275,-2.033 -1.074,-4.084c-1.733,-2.636 -2.746,-0.089 -2.958,-0.096c-4.805,-9.967 -3.462,-12.781 0.174,-23.213Z" style="fill:#158252;"/><path d="M398.98,140.742c0.181,7.849 4.893,57.442 -40.046,82.631c-36.671,20.555 -71.97,-5.749 -76.943,-9.454c1.87,-4.095 0.136,-4.153 -3.844,-6.302c-0.516,-0.279 -0.681,1.568 -1.196,1.289c-21.844,-27.413 -18.942,-48.42 -18.276,-62.181c0.705,1.702 1.132,1.339 1.247,3.01c5.897,85.709 117.528,104.636 136.801,1l0.161,-1l-0.029,-1l0.277,-1l0.123,-1l0.118,-1l0.088,-1l0.081,-1l0.036,-1l0.108,-1l1.297,-0.995Z" style="fill:#157f51;"/><path d="M729.002,373.684c0.462,0.684 0.924,1.368 1.386,2.053l-0.088,1l0.031,1c-5.045,21.909 30.666,36.176 37.484,9.924c0.167,-0.642 0.857,-14.653 10.35,-16.836c1.079,-0.248 39.232,-0.811 42.724,5.07c3.716,6.258 2.226,40.648 32.063,27.354c13.634,-6.074 8.497,-13.894 13.583,-19.621c10.961,36.157 -36.574,39.563 -43.513,23.156c-0.82,-1.939 -1.359,-3.989 -2.179,-5.928c-1.996,-8.729 -0.395,-8.93 -3.411,-17.21c-0.892,-2.449 -16.802,-2.144 -22.264,-2.343l-0.023,-1.912l-1,-0.156l-1,-0.011l-1,-0.149l-1,-0.134l-1,-0.153l-1,0.003l-1,-0.039l-1,-0.471l-1,-0.157c-3.693,0.245 -4.068,-0.87 -6.982,2.085c-9.445,2.763 -3.694,31.998 -27.991,32.039c-3.786,0.006 -17.733,-7.46 -19.208,-8.25c2.112,-4.655 -4.509,-5.164 -5.054,-10.2c-0.035,-0.326 -0.366,-3.384 -0.598,-4.061l-0.328,-1l0.173,-1c0.459,-1.513 0.552,-1.387 0.418,-3l-1.4,-0.99c1.276,-3.354 2.551,-6.708 3.827,-10.062Z" style="fill:#168052;"/><path d="M165.755,320.727c5.135,9.069 -1.811,58.235 42.359,78.084c14.4,6.471 79.745,19.767 88.158,-71.074c0.185,-1.996 -0.209,-4.089 0.394,-6c0.208,-0.658 1.608,-0.338 1.816,-0.997c-0.445,11.793 3.412,73.844 -47.407,90.792c-28.596,9.537 -91.074,-4.107 -85.32,-90.805Z" style="fill:#167e52;"/><path d="M678.193,568.737c5.746,-34.066 54.476,-16.086 41.526,14.805c-2.665,6.357 -10.306,10.007 -11.429,10.543l-1.144,-1.576c-5.908,1.062 -5.778,0.559 -12.047,0.53c-3.195,-0.015 -3.222,-1.252 -6.161,0.117c-6.661,-4.268 -13.809,-7.582 -10.746,-24.42Z" style="fill:#1e9f54;"/><path d="M156.407,348.735c2.526,71.294 -52.36,84.528 -95.465,64.353l1.332,-1.352c-1.326,-0.745 -4.203,-2.75 -4.562,-3l-0.565,-0.518c-2.97,-2.679 -2.49,-4.891 -6.274,-3.209c-8.34,-9.202 -18.082,-22.519 -17.551,-44.269l1.304,0.995l0.239,1l0.312,1l0.229,1c23.465,70.603 99.494,52.503 114.565,8.947c7.419,-21.441 3.927,-22.182 4.765,-23.947c0.278,-0.587 1.393,-0.414 1.672,-1.001Z" style="fill:#157f52;"/><path d="M445.426,348.75c-1.072,28.103 -14.55,41.541 -19.976,47.282c-3.25,-1.516 -3.086,-0.179 -5.93,2.142c-2.471,2.017 -2.553,2.281 -2.64,2.562c-0.363,1.173 1.835,0.037 1.452,1.276c-11.037,5.824 -10.68,6.385 -17.306,8.327c-50.038,14.66 -76.366,-21.803 -80.34,-27.306l1.302,-1.297c-3.198,-5.998 -6.479,-6.913 -1.368,-11.273c1.462,2.062 12.12,17.089 21.895,22.775c2.221,1.292 15.261,8.877 30.612,9.738c55.568,3.117 65.277,-38.574 69.642,-52.239l0.974,-1l1.684,-0.986Z" style="fill:#147e52;"/><path d="M722.667,358.738c1.277,47.377 -54.917,63.265 -108.663,49.4c1.066,-2.155 0.003,-1.926 -2.051,-3.03c-2.173,-1.169 -2.108,-1.981 -4.304,-0.922c-2.101,-2.496 -2.059,-2.358 -3.987,-5.126c1.098,-2.093 1.201,-1.934 1.098,-2.093c-3.66,-5.627 -1.829,-7.207 -3.514,-7.231c-0.614,-0.008 -0.86,1.113 -1.473,1.104c-1.824,-13.117 -1.367,-12.96 -1.698,-26.101c0.158,0.579 1.341,0.417 1.499,0.996c1.506,5.527 -6.283,39.849 50.586,37.35c63.766,-2.802 68.299,-34.977 70.547,-42.35l0.264,-1l1.696,-0.999Z" style="fill:#167f52;"/><path d="M248.472,142.72c6.236,85.501 -77.354,90.242 -79.273,90.499l-1.053,-1.976l-1,0.001l-1,0.542l-1,0.124l-1,-0.16l-1,0.168l-1,0.074l-1,0.015l-1,-0.069l-1,0.146l-1,-0.188l-1,0.096l-1,-0.129l-1,0.082l-1,-0.41l-1,-0.121l-1,0.038l-1,0.061l-1,-0.338l-1,0.09l-1,-0.125l-1,-0.164l-1,-0.298l-1,-0.468l-1,-0.165l-1.007,-0.309l-0.993,-0.533l-1.226,-0.467l-0.774,-0.63l-1,-0.641l-1.186,-0.729l-0.951,-1l-0.899,-1c-3.522,-4.421 -4.829,-10.979 -5.032,-12l-0.264,-1l1.802,-1.212c17.419,28.819 70.475,3.89 80.294,-2.177c30.732,-18.989 33.587,-59.019 33.59,-60.612l0.043,-1l0.107,-1l-0.018,-1l0.05,-1l1.79,-1.017Z" style="fill:#167f51;"/><path d="M537.207,538.735l1.419,1.001l0.094,1l0.018,1l0.075,1l0.182,1l0.282,1l0.117,1l0.183,1l0.098,1l0.062,1c1.355,29.441 20.29,30.92 23.398,31.163c29.54,2.308 75.749,-1.458 82.514,-12.436c2.391,-3.88 1.891,-3.988 4.798,-7.738c2.038,16.774 -0.316,28.773 -67.293,31.149c-50.091,1.777 -43.959,-18.605 -45.945,-52.139Z" style="fill:#148051;"/><path d="M130.353,79.844c17.532,-26.02 94.595,-0.624 88.863,13.936c-1.319,3.35 -25.275,-22.393 -66.021,-15.707c-35.099,5.76 -5.266,65 -16.974,67.04c-6.733,1.173 -10.855,-49.36 -5.868,-65.269Z" style="fill:#4fd770;"/><path d="M399.041,532.742c0.559,11.676 1.81,11.88 -3.431,26.176c-0.41,0.74 -7.228,21.563 -37.434,29.916c-26.017,7.195 -50.292,-3.893 -54.262,-5.707c0.019,-0.696 3.348,-2.241 -0.938,-3.024c-0,0 -2.603,-1.515 -2.83,-1.647l-1.309,-0.719l-0.691,-0.654l-1,-0.779l-1,-0.649l-1.384,-0.918l-0.616,-0.551l-0.561,-0.449l-0.928,-1l-0.975,-1l-0.753,-1c-0.207,-0.335 -1.084,-1.754 -2.868,-4c-3.028,-4.042 -2.914,-9.68 -5.008,-4.967c-1.902,-7.984 -2.465,-7.813 -1.393,-16.095c6.684,7.049 2.887,9.207 9.032,16.555c-0.029,1.06 -0.801,1.124 -0.054,2.007c1.882,2.227 1.589,2.253 3.538,4.466c6.514,7.397 7.887,3.84 9.197,3.599c53.629,26.776 92.818,-11.086 93.645,-34.565l0.324,-1l0.184,-1l0.082,-1l0.108,-1l1.326,-0.995Z" style="fill:#158051;"/><path d="M690.62,186.726l1.998,1.011l0.046,1l0.06,1l0.035,1l0.097,1l0.171,1l0.225,1l0.089,1l0.222,1l0.095,1c3.357,27.699 22.117,28.888 73.495,23.101c12.072,-1.36 25.973,-1.838 28.713,-16.101c0.052,-0.268 0.272,-1.416 1.613,-3.008c1.135,13.637 -0.199,13.981 -3.058,20.168c-4.005,-1.891 -7.107,2.055 -4.207,3.968c-3.838,1.299 -17.257,5.842 -50.099,7.475c-48.824,2.427 -48.799,-11.352 -49.495,-45.613Z" style="fill:#157f51;"/><path d="M577.208,70.164c1.413,-0.164 16.982,-3.149 31.99,-0.748c45.454,7.272 52.76,38.517 40.956,26.313c-15.315,-15.834 -46.998,-21.702 -63.977,-18.807c-21.538,3.673 -10.573,45.071 -16.349,55.631c-5.3,9.689 -5.332,-15.403 -5.334,-16.814c-0.056,-42.845 5.125,-43.021 12.714,-45.575Z" style="fill:#4fd671;"/><path d="M368.304,21.704c-2.904,4.197 -2.125,4.753 -6.108,7.118c-28.518,16.939 -32.7,25.195 -44.361,9.837c1.255,-2.44 2.823,-5.487 21.778,-26.498c8.046,-8.919 22.401,-4.25 28.691,9.543Z" style="fill:#25ab55;"/><path d="M77.28,64.542c0.254,0.524 -1.53,0.67 -1.276,1.194c1.672,3.451 2.02,4.307 5.478,2.725c2.959,5.279 2.649,5.293 3.97,11.276c-0.955,1.121 -1.156,0.778 -1.836,2.155c-7.788,15.762 -26.116,10.971 -30.172,8.347c-5.242,-3.391 -6.771,-7.39 -7.045,-7.503c-0.398,-0.164 -0.419,1.164 -0.817,1l-1.636,1.034c0.538,-9.025 -0.144,-9.04 1.456,-12.935c7.603,-18.505 29.504,-8.391 31.879,-7.294Z" style="fill:#24ab56;"/><path d="M9.683,186.745c1.175,2.546 1.681,2.224 2.304,4.991c7.826,34.762 44.285,39.328 66.205,34.229c20.992,-4.883 18.044,-9.594 18.927,-10.256c8.27,-6.194 8.099,-6.373 12.793,-16.054c0.543,0.694 1.086,1.387 1.629,2.081l-0.235,1c-3.482,12.711 -5.959,11.911 -5.644,13c0.197,0.68 1.57,0.499 1.767,1.179c-1.021,1.329 -2.042,2.658 -3.063,3.986c-0.531,-0.252 -4.382,-2.081 -6.274,3.835c-0.169,0.53 1.363,0.638 1.193,1.168c-46.665,29.846 -77.456,-4.158 -79.352,-5.999l1.666,-1.169l-0.721,-1c-1.533,-2.407 -1.557,-2.16 -3.002,-4.802c-3.043,-5.564 -4.222,-2.952 -4.229,-2.954c-4.538,-11.175 -4.021,-11.303 -3.964,-23.235Z" style="fill:#168052;"/><path d="M436.504,273.7c0.983,6.319 3.396,16.57 -15.251,25.301c-2.904,-2.797 -3.287,-1.507 -7.106,-0.262l-1,-0.062l-1,-0.002l-1,-0.083l-1,0.165l-1,-0.235l-1,-0.163c-5.123,-2.593 -4.215,-6.755 -9.485,-4.176c-27.352,-22.678 -40.739,8.588 -41.296,9.646c-4.855,13.812 -3.87,17.267 -4.742,23.886c-0.292,-0.642 -1.583,-0.336 -1.876,-0.978c-2.257,-4.956 1.451,-39.85 17.607,-47.567c21.833,-10.429 34.46,7.745 38.704,9.753c15.748,7.452 29.389,-15.176 29.446,-15.221Z" style="fill:#147e53;"/><path d="M673.42,365.956c-10.008,9.725 -29.034,9.42 -29.242,2.781c-0.448,-14.34 -1.846,-25.605 3.942,-26.174c2.743,-0.269 39.77,-3.907 25.3,23.393l-20.812,-4.24c2.597,11.2 21.212,-1.959 10.588,-4.132c-10.874,-2.225 -10.142,1.484 -10.588,4.132l20.812,4.24Z" style="fill:#032b42;fill-opacity:0.99;"/><path d="M391.438,448.631c0.485,1.59 4.171,13.686 -1.771,20.705c-18.625,22 -40.457,-5.29 -42.664,-6.238c-17.867,-7.669 -19.988,7.917 -20.23,9.695c-0.705,-0.77 -5.639,-6.159 -2.214,-12.868c10.358,-20.291 33.79,1.53 35.902,3.497c8.531,7.945 28.4,3.849 30.129,-11.686l-0.103,-1l-0.249,-1l1.2,-1.105Z" style="fill:#168151;"/><path d="M690.29,258.512c10.648,8.347 5.876,11.608 5.242,10.833c-3.165,-3.87 -15.734,-19.236 -61.301,-12.122c-28.911,4.514 -18.147,20.845 -22.176,35.474c-0.152,0.551 -4.616,5.082 -5.144,-4.954c-1.539,-29.252 2.045,-42.084 60.187,-37.567c12.531,0.974 12.063,2.533 23.192,8.334Z" style="fill:#4dd671;"/><path d="M618.405,435.916c-11.172,9.617 -57.997,-3.029 -63.078,17.868c-0.35,1.438 -2.811,35.751 -8.56,23.1c-0.786,-1.731 -6.102,-36.807 16.41,-41.002c19.877,-3.704 47.599,-4.251 49.97,-4.177c4.57,0.142 6.298,1.176 5.258,4.211Z" style="fill:#4ed672;"/><path d="M175.325,452.912c-6.318,10.159 -3.855,46.193 -10.3,28.863c-1.379,-3.709 -2.514,-27.531 3.421,-33.814c12.088,-12.796 74.465,-18.37 64.576,-8.357c-4.482,4.538 -41.862,1.636 -57.697,13.307Z" style="fill:#4ed971;"/><path d="M699.597,111.726c0.009,-0.39 -0.87,-15.759 3.879,-28.879c6.484,-17.914 62.298,-17.693 64.279,-12.921c4.624,11.141 -53.981,-2.301 -58.786,19.767c-0.259,1.192 -4.605,46.829 -9.372,22.034Z" style="fill:#4dd86f;"/><path d="M643.532,282.052c9.285,-3.971 17.372,-1.394 23.509,0.873c4.458,4.299 4.153,4.545 5.032,10.799c-1.492,6.641 -1.901,13.601 -22.931,14.618c-9.111,0.44 -6.719,-9.65 -6.613,-24.587c0.334,-0.567 0.668,-1.135 1.003,-1.702l9.104,14.118c-3.401,9.07 13.306,2.318 7.36,-0.104c-3.751,-1.529 -6.824,-0.139 -7.36,0.104l-9.104,-14.118Z" style="fill:#032c41;fill-opacity:0.99;"/><path d="M669.874,456.684c1.827,1.922 9.02,13.521 22.262,12.948c8.287,-0.359 23.844,-26.538 39.64,-13.434c4.65,3.858 7.333,13.701 3.371,14.131c-1.649,0.179 -0.789,0.954 -1.176,1.423c-2.346,-4.948 -2.363,-4.792 -6.786,-8.09c-8.109,-2.395 -10.253,-0.479 -15.724,1.563c-0.62,0.126 -0.695,-1.494 -1.315,-1.368c-4.79,0.972 -2.801,4.801 -2.587,5.214c-6.922,8.721 -11.764,14.811 -30.229,6.318c-9.104,-6.81 -9.206,-7.92 -7.457,-18.706Z" style="fill:#168252;"/><path d="M491.138,431.991c0.766,0.066 14.623,1.264 7.868,5.51c-5.042,3.169 -5.812,-0.027 -73.853,9.292c-12.964,1.776 -10.487,-5.354 -7.814,-6.709c2.59,-1.313 37.497,-6.966 73.799,-8.093Z" style="fill:#4cd672;"/><path d="M440.794,550.733c0.533,0.809 1.823,-0.104 1.977,3.004c0.127,2.553 1.18,23.729 20.402,24.591c26.83,1.204 28.245,-18.201 28.677,-19.591l0.264,-1l0.173,-1l0.19,-1l0.197,-1l1.089,-0.991c0.353,9.093 2.017,17.118 -4.679,25.947c-3.577,4.716 -11.506,8.478 -19.944,8.764c-33.277,1.128 -28.492,-29.636 -28.347,-37.724Z" style="fill:#168153;"/><path d="M334.14,282.729c-15.224,6.491 17.25,-49.611 69.861,-30.597c6.378,2.305 7.023,7.896 0.219,7.228c-1.229,-0.121 -22.818,-9.838 -49.857,3.766c-12.904,6.492 -11.152,8.503 -20.222,19.603Z" style="fill:#50d773;"/><path d="M796.4,310.804c2.851,-7.866 3.237,-15.143 5.26,-8.882c0.473,1.464 3.697,15.161 7.861,32.714c1.409,6.932 1.795,6.806 1.306,8.885c-2.942,1.746 -23.042,2.651 -24.12,-2.789c3.359,-9.975 3.15,-9.802 6.578,-19.953l3.116,-9.974Z" style="fill:#022c42;"/><path d="M507.433,337.625c0.036,-2.379 0.313,-2.339 11.713,-40.888c2.253,-7.619 11.72,36.752 12.42,40.031c0.634,2.971 -17.024,4.783 -24.134,0.858Z" style="fill:#042d41;"/><path d="M437.176,79.342c-6.315,0.153 -6.264,0.386 -11.297,4.023c-8.453,6.108 -2.101,-15.994 15.298,-11.725c20.424,5.011 38.678,58.655 38.56,58.88c-4.463,8.455 -21.387,-46.635 -42.56,-51.177Z" style="fill:#51d871;"/><path d="M304.466,138.769l-1.541,-1.033l0.072,-1l0.055,-1l0.142,-1l0.236,-1l0.073,-1c0.582,-2.573 5.178,-22.886 18.54,-27.277c28.619,-9.405 38.392,26.506 32.026,37.276c-0.608,-3.379 -6.986,-38.794 -33.714,-26.55c-10.291,4.714 -15.229,20.476 -15.89,22.584Z" style="fill:#157c50;"/><path d="M795.489,80.73c0.362,13.038 1.574,19.268 -13.272,24.32c-0.69,-0.456 -1.38,-0.913 -2.071,-1.369l-1,0.183l-1,-0.017c-13.777,0.546 -13.826,0.557 -15,0.813l-1,0.146l-1,0.081l-1,0.005l-1,0.042l-1,0.065l-1,0.103l-1,0.07l-1,0.055l-1,-0.102l-1,-0.069l-1,0.26l-1,0.045l-1,0.135l-1,0.16l-1,0.146l-1,0.018l-1,-0.069l-1,0.361l-1,-0.126l-1,0.197l-1,0.114l-1.047,2.006c-2.682,0.751 -2.611,0.63 -4.472,2.459c-0.524,-0.834 -1.071,-0.375 -1.858,-2.954c-6.727,-22.05 49.016,2.384 58.8,-25.073l0.22,-1l1.701,-1.006Z" style="fill:#148050;"/><path d="M282.221,101.79c3.003,-3.903 27.725,-36.034 54.875,-27.891c4.964,1.489 5.275,6.316 -2.932,7.069c-48.71,4.472 -45.114,29.99 -53.956,33.878c-6.377,2.803 1.519,-12.122 2.014,-13.056Z" style="fill:#4fd76f;"/><path d="M313.13,435.697c3.722,-1.407 36.209,-13.686 49.733,-0.639c8.435,8.137 -13.465,-0.133 -30.672,2.079c-28.526,3.667 -34.385,29.018 -36.771,21.494c-3.305,-10.42 15.718,-21.748 17.71,-22.934Z" style="fill:#4fd973;"/><path d="M410.377,176.734l1.222,1.002l0.083,1l0.047,1l0.063,1l0.095,1l0.081,1l0.051,1l0.206,1l0.048,1l0.076,1l0.106,1l0.102,1l0.031,1l-0.006,1l0.055,1l0.064,1c0.753,10.949 1.582,28.82 28.439,25.904c16.919,-1.837 13.243,-16.353 13.795,-17.904c0.216,-0.608 1.42,-0.424 1.636,-1.032l0.992,6.98c-0.455,0.684 -0.909,1.368 -1.364,2.052l-0.08,1l-0.001,1l-0.154,1c-0.93,4.703 -0.43,4.723 -2.386,9l-1.011,1l-0.751,1l1.517,1.259c-1.706,0.968 -3.412,1.935 -5.118,2.903c-0.69,-0.378 -1.38,-0.755 -2.069,-1.133l-1,0.266l-1,0.108l-1,0.359c-0.472,0.115 -2.903,0.709 -6,0.937l-1,0.083c-6.091,-0.303 -7.372,-0.581 -8,-0.717l-1,-0.308c-2.381,-0.403 -4.616,-1.366 -5,-1.531c-2.216,-0.955 -2.029,1.01 -2.218,1.104l-1.849,-1.246c-0.074,-0.61 1.141,-0.894 1.067,-1.504c-0.333,-2.758 -2.501,-1.628 -5.274,-8.578l-0.235,-1l-1.878,0.058c-1.993,-15.883 -1.799,-15.807 -1.382,-37.061Z" style="fill:#147f4f;"/><path d="M402.999,448.733l1.545,1.003l0.151,1l0.115,1l0.015,1l0.168,1l0.177,1c0.429,13.257 19.024,12.572 20.976,12.5c11.843,-0.436 20.891,-4.936 19.819,12.5c-0.188,3.062 -1.649,2.467 -2.005,3c-3.524,-15.53 -13.348,1.52 -35.054,-8.631c-6.967,-7.062 -6.839,-10.223 -5.907,-25.372Z" style="fill:#158354;"/><path d="M688.931,451.48c-11.13,7.381 -6.236,-12.844 19.198,-17.85c36.732,-7.229 58.005,22.751 41.283,13.658c-25.578,-13.908 -39.207,-10.963 -60.481,4.192Z" style="fill:#4fd671;"/><path d="M504.206,265.767c-13.403,31.884 -13.122,32.992 -16.059,33.004c-6.792,0.029 8.948,-42.437 17.207,-46.718c14.331,-7.43 19.478,3.489 13.848,4.832c-8.933,2.131 -9.935,1.142 -14.997,8.882Z" style="fill:#50d772;"/><path d="M119.132,255.639c6.497,-0.257 6.846,-1.664 12.098,1.981c8.792,6.103 11.229,47.221 11.115,48.152c-2.005,16.46 -10.264,-26.276 -12.936,-36.099c-3.05,-11.212 -8.735,-5.92 -13.264,-6.323c-0.659,-0.059 -8.944,-3.674 2.987,-7.712Z" style="fill:#4dd671;"/><path d="M771.785,284.597c7.78,-17.8 5.186,-19.604 14.737,-27.446c10.444,-8.575 26.421,3.612 12.602,5.105c-20.658,2.233 -16.728,25.716 -28.446,39.061c-9.261,10.546 0.631,-15.467 1.107,-16.72Z" style="fill:#4fd673;"/><path d="M796.4,310.804c-2.494,-5.091 -2.498,0.62 -4.204,5.933l-0.486,1l-0.046,1c0.54,0.68 1.08,1.361 1.62,2.041c-3.428,10.151 -3.219,9.978 -6.578,19.953l-1.487,-0.994l-0.097,-1l-0.007,-1c4.154,-44.045 17.477,-48.99 20.561,-38.824c9.231,30.42 8.038,38.461 7.538,41.824c-0.423,2.851 -2.111,2.459 -2.389,2.783c0.489,-2.078 0.103,-1.953 -1.306,-8.885c-4.163,-17.552 -7.387,-31.249 -7.861,-32.714c-2.023,-6.26 -2.409,1.016 -5.26,8.882Z" style="fill:#187e53;"/><path d="M50.161,150.756c-23.07,15.928 -21.266,17.728 -27.135,25.896c-2.742,3.816 -8.491,-7.051 13.514,-23.418c18.17,-13.514 19.004,-14.436 21.501,-29.517c0.56,-3.383 6.774,-4.313 5.37,5.072c-1.984,13.257 -3.736,12.702 -13.25,21.967Z" style="fill:#51d871;"/><path d="M449.749,557.883c-0.425,-2.368 -3.52,-7.29 -1.191,-41.112c7.29,-105.851 4.284,31.37 5.358,44.964c0.44,5.566 -3.968,-3.444 -4.168,-3.852Z" style="fill:#46d472;"/><path d="M405.403,372.991c-31.975,29.338 -61.363,-13.812 -55.326,-14.355c1.067,-0.096 31.61,40.77 59.214,2.252c0.359,-0.5 1.84,-1.116 1.993,-0.253c0.609,3.424 -5.238,11.47 -5.881,12.356Z" style="fill:#4ad672;"/><path d="M237.062,559.341c-3.045,0.526 -31.273,8.915 -36.32,-4.512c-2.916,-7.758 3.659,2.77 14.404,1.921c15.807,-1.248 47.312,-13.971 44.594,-4.099c-0.651,2.366 -20.04,6.078 -22.678,6.689Z" style="fill:#4bd670;"/><path d="M602.06,194.193c-0.936,-0.309 -10.167,-3.352 -9.815,-7.44c0.188,-2.182 4.642,1.774 9.901,0.98c27.51,-4.156 30.93,-13.805 37.374,-27.694c4.535,-9.774 3.267,35.687 -37.46,34.154Z" style="fill:#4dd870;"/><path d="M600.175,559.117c-1.92,0.038 -20.332,0.399 -22.502,-8.363c-1.441,-5.815 3.738,3.499 12.472,3.154c19.211,-0.76 52.702,-11.882 47.695,-1.337c-0.909,1.915 -1.535,1.157 -37.665,6.547Z" style="fill:#4bd671;"/><path d="M517.151,65.98c1.246,0.115 21.892,-4.45 14.54,37.684c-5.366,30.752 -1.69,-27.426 -10.642,-30.663c-7.753,-2.803 -20.149,3.145 -14.672,-5.008c4.838,-3.041 5.107,-1.931 10.774,-2.013Z" style="fill:#4ed870;"/><path d="M750.175,194.948c32.08,-6.478 32.303,-5.15 34.085,-4.382c9.895,4.26 -15.4,8.595 -34.117,10.128c-24.665,2.02 -24.797,-13.707 -21.012,-10.933c9.148,6.704 9.751,5.492 21.044,5.187Z" style="fill:#49d66d;"/><path d="M255.57,350.947c9.06,-16.751 4.746,17.651 -12.607,24.376c-20.34,7.882 -32.779,-11.176 -23.843,-8.458c23.406,7.121 26.277,2.169 36.451,-15.918Z" style="fill:#50d873;"/><path d="M368.304,21.704c1.619,9.289 0.121,9.756 -9.915,16.404l-1.243,-1.412l-1,0.514c-4.055,1.326 -3.651,2.182 -9.72,5.956c-0.144,0.089 0,-0 0.923,1.903c-2.294,1.413 -16.686,14.519 -25.926,5.389c-5.313,-5.25 -3.84,-10.844 -3.589,-11.798c11.661,15.358 15.844,7.102 44.361,-9.837c3.982,-2.365 3.203,-2.921 6.108,-7.118Z" style="fill:#197e51;"/><path d="M192.236,266.001c-13.919,8.252 -8.51,49.894 -15.851,40.562c-0.232,-0.295 -3.458,-48.519 16.709,-46.363c0.66,0.071 6.003,0.642 7.847,2.698c0.494,0.55 0.628,2.207 -8.705,3.103Z" style="fill:#4ed472;"/><path d="M648.101,379.164c34.299,2.493 29.811,-20.271 35.776,-15.149c9.448,8.113 -31.624,34.009 -48.412,11.499c-6.34,-8.5 -2.137,-40.945 -0.344,-15.775c0.393,5.513 3.817,12.814 4.31,13.866c2.494,5.318 8.554,5.521 8.67,5.559Z" style="fill:#4cd373;"/><path d="M85.452,79.737c0.355,5.179 0.315,5.066 -0.936,10.144c-1.217,-0.584 -1.377,-1.215 -2.072,0.011c-4.96,8.757 -7.109,7.001 -7.238,7.845c-0.085,0.557 1.167,0.743 1.082,1.3c-5.074,2.154 -12.787,5.972 -24.422,-0.871c1.204,-2.729 0.19,-2.673 -2.12,-4.429c-0.984,-1.547 -1.193,-1.581 -2.889,-0.842c-1.871,-3.984 -1.865,-3.867 -2.912,-8.124l1.636,-1.034c0.398,0.164 0.419,-1.164 0.817,-1c0.275,0.113 1.803,4.112 7.045,7.503c4.056,2.624 22.384,7.415 30.172,-8.347c0.68,-1.377 0.881,-1.034 1.836,-2.155Z" style="fill:#177e4f;"/><path d="M281.526,280.665c-2.689,-10.983 -3.131,-12.86 -14.364,-13.111c-3.173,-0.071 -2.74,-3.964 1.115,-5.541c24.125,-9.871 21.986,37.566 19.52,40.271c-3.593,3.942 -5.532,-17.106 -6.271,-21.619Z" style="fill:#50d473;"/><path d="M378.084,514.791c-14.31,-12.372 -24.433,-13.181 -45.973,-21.982c-10.119,-4.135 -12.034,-11.846 -7.964,-9.073c21.992,14.979 59.66,14.174 63.041,42.001c1.194,9.827 -2.226,-1.959 -9.104,-10.945Z" style="fill:#4cd571;"/><path d="M773.801,148.55c0.314,0.644 1.48,0.542 1.794,1.186c0.185,0.378 -0.219,0.327 -1.64,5l-0.454,1l-0.574,1l-0.781,1.17l-1.351,0.83l-0.649,0.903l-1,0.145l-1,0.629l-1,0.488l-1,0.575l-1,0.462l-1,0.218l-1,0.145l-1,0.105l-1,-0.084l-1,0.218l-1,0.331l-1,0.039l-1,-0.085l-1,0.12l-1,0.002l-1,-0.012l-1,-0.164l-1,0.099l-1,-0.001l-1,-0.12l-1,0.038l-1,-0.001l-1,0.022l-1,-0.23l-1,0.039l-1,0.103l-1,-0.056l-1,-0.024l-1,0.177c-3.258,0.639 -5.127,0.232 -3.72,3.244c-0.352,0.557 -0.704,1.114 -1.056,1.671c-0.241,-0.291 -1.865,-0.225 -2.444,-2.953c-3.791,-17.869 24.741,-1.5 39.875,-16.229Z" style="fill:#13814e;"/><path d="M84.571,131.753c-0.426,21.055 -13.008,27.815 -23.99,36.479c-3.712,-1.922 -3.97,-0.714 -6.42,2.516c-0.289,0.382 -3.373,4.448 -3.309,4.989c0.078,0.656 1.512,0.527 1.59,1.183c-1.695,3.455 -1.816,3.192 -2.8,6.802c-5.242,-10.438 2.633,-17.382 21.658,-32.659c2.466,-2.017 2.805,-1.819 3.295,-5.088c4.914,-5.409 4.594,-5.514 7.77,-12.237l0.458,-1l1.749,-0.984Z" style="fill:#1a7e52;"/><path d="M402.167,328.385c-0.734,-0.099 -8.807,-1.184 -8.87,-2.659c-0.088,-2.078 40.53,-10.797 43.376,7.066c1.245,7.811 -4.593,9.303 -6.048,3.828c-2.747,-10.336 -9.469,-7.495 -28.459,-8.234Z" style="fill:#4cd672;"/><path d="M308.928,185.902c-5.007,-7.942 3.048,-1.123 9.331,0.468c25.433,6.441 36.788,-14.744 36.827,-14.762c13.53,-6.211 -19.017,41.179 -46.158,14.294Z" style="fill:#4dd86e;"/><path d="M175.168,194.382c-12.217,-2.173 -9.728,-6.08 -8.938,-6.474c1.386,-0.692 11.928,2.486 25.699,-5.525c16.629,-9.673 21.338,-37.565 17.464,-18.664c-5.873,28.655 -30.559,30.404 -34.226,30.663Z" style="fill:#4dd76f;"/><path d="M377.886,331.729l1.668,1.007c4.955,18.852 35.726,1.158 26.555,20.988c-0.807,1.746 -0.838,1.58 -2.393,2.796c0.019,-10.484 -11.13,-0.564 -21.46,-7.932c-5.755,-4.105 -4.521,-15.473 -4.37,-16.859Z" style="fill:#147d52;"/><path d="M88.054,380.103c13.979,1.29 15.966,0.528 23.525,-9.981c7.556,-10.504 -3.206,26.757 -29.354,14.448c-10.196,-4.799 -12.102,-21.616 -6.5,-14.465c5.059,6.458 4.631,6.967 12.329,9.998Z" style="fill:#4fd573;"/><path d="M643.532,282.052c-0.334,0.567 -0.668,1.135 -1.003,1.702l-1.446,-1.018c0.033,-1.243 -3.241,-12.231 16.087,-11.226c9.45,0.491 24.665,8.753 14.903,22.214c-0.88,-6.254 -0.575,-6.499 -5.032,-10.799l1.106,-1.531l-1,-0.678l-1,-0.521l-1,-0.263l-1,-0.64l-1,-0.224l-1,-0.096c-4.48,-1.369 -4.43,-0.958 -9,-1.054c-6.317,0.911 -9.395,-2.168 -9.615,4.136Z" style="fill:#10804c;"/><path d="M675.19,308.786c-13.838,9.808 -14.165,10.919 -31.042,8.943c-8.564,-1.002 -7.433,-5.479 -4.991,-5.26c2.731,0.245 25.92,2.327 33.518,-7.161c0.295,-0.369 7.927,-15.012 7.064,-5.605c-0.356,3.876 -4.039,8.449 -4.549,9.082Z" style="fill:#4bd573;"/><path d="M233.135,494.869c19.485,5.186 -34.003,14.317 -34.687,1.9c-0.119,-2.162 4.99,0.437 6.736,0.722c6.643,1.087 7.848,-1.842 27.952,-2.622Z" style="fill:#4ad670;"/><path d="M703.157,512.733c2.542,-9.492 8.627,-8.788 25.097,-18.835c10.529,-6.422 14.393,-20.558 13.715,-13.147c-1.693,18.492 -15.436,15.464 -37.872,32.808l-0.94,-0.826Z" style="fill:#50d774;"/><path d="M525.146,344.751c8.081,-1.623 8.496,-2.004 11.47,-9.658c3.391,-8.725 11.646,13.509 -6.442,14.889c-2.713,0.207 -18.893,0.102 -21.044,-2.231c-0.884,-0.958 -0.162,-2.797 16.016,-3Z" style="fill:#4ad570;"/><path d="M744.138,139.994c-5.339,-0.625 -5.195,-0.376 -10.059,-2.097c-5.604,-1.983 -4.701,-6.527 -2.947,-5.896c21.752,7.829 30.494,-5.604 34.598,3.847c0.701,1.613 0.144,4.107 -21.592,4.145Z" style="fill:#4ed970;"/><path d="M307.457,325.736c3.224,9.869 1.518,10.032 4.032,19.911c3.892,15.298 8.759,24.011 9.13,24.815c-5.11,4.36 -1.83,5.275 1.368,11.273l-1.302,1.297c-15.611,-26.428 -13.121,-44.841 -13.228,-57.297Z" style="fill:#197c57;"/><path d="M815.305,354.072c-2.14,0.461 -17.071,3.68 -27.345,-1.091c-11.161,-5.183 23.002,1.255 27.273,-8.208c0.209,-0.462 3.884,-8.607 4.894,-4.029c1.971,8.939 -3.87,12.713 -4.822,13.328Z" style="fill:#4bd371;"/><path d="M580.379,495.561c-0.101,-0.269 -1.792,-4.78 0.642,-3.539c12.087,6.161 22.866,-0.559 32.049,1.046c17.018,2.974 -19.359,13.092 -32.691,2.494Z" style="fill:#4ad571;"/><path d="M85.902,195.665c-11.944,31.462 -42.925,6.193 -32.723,8.782c27.807,7.057 22.766,-8.421 29.225,-12.316c3.83,-2.31 3.52,3.137 3.497,3.534Z" style="fill:#52d871;"/><path d="M355.931,558.489c-1.693,0.974 -18.588,10.698 -24.335,2.001c-4.282,-6.481 12.458,1.204 22.346,-8.975c0.361,-0.372 5.873,-6.045 6.235,-1.783c0.439,5.17 -1.025,4.649 -4.247,8.757Z" style="fill:#4bd770;"/><path d="M66.141,345.746c10.172,12.306 -11.549,-1.567 -17.625,8.247c-0.271,0.438 -5.738,19.596 -5.977,6.728c-0.199,-10.707 7.373,-21.168 23.602,-14.975Z" style="fill:#51d574;"/><path d="M317.393,546.545c23.702,28.859 -9.743,-3.336 -12.444,-4.389c-5.264,-2.052 -15.161,2.641 -8.651,-4.265c7.85,-8.328 19.973,7.216 21.095,8.654Z" style="fill:#4ed474;"/><path d="M694.24,327.386c25.21,10.334 16.8,23.776 14.096,21.164c-1.021,-0.987 -3.08,-8.625 -9.298,-12.654c-0.656,-0.425 -15.564,-10.084 -4.798,-8.511Z" style="fill:#4ad173;"/><path d="M351.028,17.632c-0.671,0.587 -42.655,36.802 -10.964,2.027c0.612,-0.672 6.399,-7.021 9.078,-6.841c4.18,0.282 2.073,4.444 1.886,4.813Z" style="fill:#52d673;"/><path d="M128.066,198.748c4.932,10.565 4.096,10.875 4.55,11.777l-1.802,1.212l0.264,1c0.203,1.021 1.51,7.579 5.032,12l0.899,1l0.951,1l1.186,0.729l1,0.641l0.774,0.63l1.226,0.467l0.993,0.533l1.007,0.309l1,0.165l1,0.468l1,0.298l1,0.164l1,0.125l1,-0.09l1,0.338l1,-0.061l1,-0.038l1,0.121l1,0.41l1,-0.082l1,0.129l1,-0.096l1,0.188l1,-0.146l1,0.069l1,-0.015l1,-0.074l1,-0.168l1,0.16l1,-0.124l1,-0.542l1,-0.001l1.053,1.976c-29.305,2.303 -40.036,-0.625 -41.133,-34.471Z" style="fill:#1f7a5a;"/><path d="M777.059,141.747c0.772,6.36 3.287,13.621 -7.068,20.708c-12.589,5.208 -25.712,0.646 -32.565,3.606c-1.407,-3.012 0.462,-2.604 3.72,-3.244l1,-0.177l1,0.024l1,0.056l1,-0.103l1,-0.039l1,0.23l1,-0.022l1,0.001l1,-0.038l1,0.12l1,0.001l1,-0.099l1,0.164l1,0.012l1,-0.002l1,-0.12l1,0.085l1,-0.039l1,-0.331l1,-0.218l1,0.084l1,-0.105l1,-0.145l1,-0.218l1,-0.462l1,-0.575l1,-0.488l1,-0.629l1,-0.145l0.649,-0.903l1.351,-0.83l0.781,-1.17l0.574,-1l0.454,-1c1.42,-4.673 1.824,-4.622 1.64,-5c-0.314,-0.644 -1.48,-0.542 -1.794,-1.186c0.554,-1.605 1.108,-3.209 1.662,-4.814l0.216,-1l1.38,-0.99Z" style="fill:#217c5c;"/><path d="M588.356,545.26c22.07,2.757 37.694,-8.902 55.148,-0.006l-1.357,1.757l-1,-0.582l-1,-0.594l-1,-0.276l-1,-0.315l-1,-0.508l-1,-0.392l-1,0.203l-1,-0.203l-1,0.04l-1,-0.283l-1,0.228l-1,0.043l-1,-0.528l-1,0.443l-1,0.119l-1,0.026l-1,0.241l-1,0.171l-1,0.125l-1,0.15l-1,-0.011l-1,0.209l-1,-0.073l-1,0.169l-1,0.162c-3.915,1.422 -3.819,0.818 -8,0.993c-0.763,0.254 -2.309,0.768 -10,0.975l-1,0.097l-1,0.028l-1,0.09l-1,0.045l-1,0.116l-1,0.022l-1,0.061l-1,0.005l-1,-0.19l-1,-0.192l-1,-0.176l-0.946,-0.71l1.155,-1.477Z" style="fill:#32a069;"/><path d="M517.312,425.327l-1.445,1.409c-5.67,-0.483 -5.597,-0.257 -16.719,-0.219l-1,0.053l-1,0.026l-1,-0.005l-1,0.009l-1,0.085l-1,0.049l-1,0.094l-1,0.182l-1,-0.04l-1,0.111l-1,0.108l-1,0.036c-0.561,0.01 -5.047,0.088 -7,0.47l-1,0.012l-1,0.036l-1,0.182l-1,0.039c-0.589,0.046 -0.436,0.271 -1.044,0.318c-0.396,0.031 -0.367,0.017 -4.956,0.224l-1,0.131l-1,-0.043l-1,0.056l-1,0.045l-1,0.066c-3.722,0.582 -3.704,0.596 -4,0.602l-1,0.014l-1,0.061l-1,0.162l-1,0.092l-1,0.053l-1,0.135l-1,0.083c-0.678,-0.545 -1.356,-1.091 -2.033,-1.636c33.651,-3.363 56.819,-5.422 65.198,-3Z" style="fill:#34a16d;"/><path d="M727.185,463.662c-0.68,0.439 -1.359,0.877 -2.039,1.316l-1,-0.306l-1,0.191l-1,-0.218l-1,-0.014l-1,0.29l-1,0.238c-7.733,1.171 -6.097,3.922 -12.41,8.578l-0.95,1l-1.101,1l-1.023,1l-0.516,0.507l-1,0.849l-1,0.3l-1,0.524l-1,0.564l-1,0.47l-1,0.289l-1,0.182l-1,0.315c-7.497,2.289 -13.699,-1.21 -16,-2.319l-1,-0.379l-1,-0.607l-0.743,-0.696l0.927,-1.347c18.465,8.493 23.308,2.403 30.229,-6.318c1.3,-1.282 2.601,-2.564 3.901,-3.846c5.47,-2.043 7.615,-3.959 15.724,-1.563Z" style="fill:#002f39;"/><path d="M739.116,62.34c42.071,-3.588 47.321,-3.769 54.106,6.365c-0.52,0.677 -1.04,1.354 -1.561,2.032l-0.515,-1.115l-0.711,-0.885l-0.452,-1c-2.171,-2.384 -2.159,-2.2 -4.838,-3.717l-1,-0.572l-1,-0.194l-1,-0.332l-1,-0.274c-19.192,-0.313 -19.014,-0.518 -38,1.237c-0.344,0.032 -1.852,0.171 -4.03,-1.545Z" style="fill:#37a56a;"/><path d="M237.188,427.203l-1.042,1.954l-1,0.081l-1,0.063l-1,0.196l-1,0.124l-1,0.06l-1,0.168l-1,0.001l-1,0.129l-1,0.203l-1,-0.058l-1,0.143l-1,0.074l-1,0.086l-1,0.135l-1,0.15l-1,0.002l-1,0.135c-4.68,0.367 -4.652,0.349 -5.054,0.396c-0.717,0.084 -0.416,0.41 -0.946,0.473l-1,0.19c-4.026,0.293 -3.848,0.448 -8,0.717l-1,0.31l-1,0.159c-0.482,0.026 -0.24,0.147 -6,0.602l-1,0.003l-1,0.126l-1,0.271l-2,0.204l-1,0.226l-1,0.147c-6.895,1.415 -6.682,1.425 -7,1.365c-0.66,-0.125 -0.411,-1.582 -1.071,-1.706c19.813,-3.602 19.696,-3.893 56.113,-7.127Z" style="fill:#359f69;"/><path d="M73.904,70.876c1.849,9.389 -5.85,-1.759 -14.863,1.58c-3.431,1.271 -6.195,-2.278 -1.631,-5.35c8.199,-5.518 15.592,2.761 16.494,3.771Z" style="fill:#50db72;"/><path d="M96.815,269.773l1.604,0.963l0.325,1l0.337,1l0.434,1c4.207,12.288 3.653,12.285 6.151,25l0.132,1l0.288,1l0.148,1l0.167,1l0.204,1l-1.834,1.085c-4.186,-17.646 -6.183,-17.081 -7.956,-35.049Z" style="fill:#1a7a55;"/><path d="M391.096,317.57c28.035,-6.121 41.682,0.756 44.894,2.375l1.709,1.272c-0.615,0.312 -3.162,1.603 -8.412,-1.903c-2.337,-1.56 -2.462,-0.977 -5.14,-1.811l-1,0.022l-1,-0.022l-1,-0.075l-1,-0.008l-1,-0.032l-1,-0.024l-1,-0.1l-1,0.105l-1,0.104l-1,-0.068l-1,0.016l-1,0.112l-1,-0.057l-1,0.002l-1,0.115l-1,0.129l-1,-0.064l-1,0.202c-10.214,0.787 -10.131,0.647 -11,0.799l-1,0.241l-1,0.271c-0.684,-0.533 -1.367,-1.067 -2.051,-1.6Z" style="fill:#339f6b;"/><path d="M589.116,426.341c29.429,-2.382 38.261,-2.473 48.249,0.973l-1.218,1.886l-1,-0.554l-1,-0.204l-1,-0.446l-1,-0.309l-1,-0.169l-1,-0.174l-1,-0.264l-1,-0.121l-1,-0.127l-1,-0.218l-1,-0.031l-1,0.053l-1,0.036l-1,0.002l-1,-0.012l-1,0.052l-1,0.015l-1,-0.022l-1,0.1l-1,0.05l-1,-0.222l-1,0l-1,0.065l-1,0.076c-16.727,1.199 -16.567,1.064 -18,1.24l-1,0.173l-1,0.097l-1,-0.304c-0.677,-0.547 -1.353,-1.094 -2.03,-1.642Z" style="fill:#33a16d;"/><path d="M776.908,470.752c1.046,16.585 0.105,23.792 -15.608,38.178c0.352,-0.497 -1.734,-0.697 -1.383,-1.194c2.352,-3.328 5.742,-5.788 8.463,-8.822c3.626,-4.044 6.513,-13.898 6.888,-15.178l0.203,-1c-0.489,-0.677 -0.978,-1.354 -1.467,-2.032c0.271,-1.323 0.543,-2.646 0.814,-3.968l0.24,-1l0.275,-1l0.132,-1l0.098,-1l0.137,-1l1.21,-0.984Z" style="fill:#217c5a;"/><path d="M586.552,487.334c8.417,4.012 22.199,-4.927 37.165,2.875c-1.813,0.096 -1.798,1.128 -3.367,0.179c-1.776,-1.075 -1.812,-0.687 -5.204,-1.18l-1,-0.065l-1,0.139l-1,0.117l-1,0.07l-1,-0.071l-1,0.224l-1,-0.256l-1,0.029l-1,0.08l-1,0.023l-1,-0.006l-1,-0.008l-1,0.046l-1,0.056l-1,0.078l-1,-0.03l-1,0.192c-4.471,0.415 -14.69,3.121 -11.594,-2.493Z" style="fill:#329f69;"/><path d="M567.332,228.263c11.292,3.259 13.362,3.63 32.786,3.068c0.676,0.54 1.353,1.079 2.029,1.619l-1,0.498l-1,-0.075l-1,0.152l-1,-0.03l-1,-0.103l-1,0.115l-1,-0.064l-1,0.002l-1,-0.069l-1,-0.03l-1,0.033l-1,0.163l-1,0.035l-1,-0.013l-1,0.007l-1,0.077l-1,-0.203l-1,-0.011c-0.641,0.009 -5.199,0.074 -8,-0.464l-1,-0.164l-1,-0.242l-1,-0.012l-1,0.106l-1,-0.199l-1,-0.382l-1,-0.487l-1,-0.722l-1,-0.302l-1,-0.29l-0.171,-0.539l1.356,-1.473Z" style="fill:#002e3a;"/><path d="M782.217,105.05c-20.566,2.696 -20.533,1.509 -41.118,3.254l1.047,-2.006l1,-0.114l1,-0.197l1,0.126l1,-0.361l1,0.069l1,-0.018l1,-0.146l1,-0.16l1,-0.135l1,-0.045l1,-0.26l1,0.069l1,0.102l1,-0.055l1,-0.07l1,-0.103l1,-0.065l1,-0.042l1,-0.005l1,-0.081l1,-0.146c1.174,-0.256 1.223,-0.267 15,-0.813l1,0.017l1,-0.183c0.69,0.456 1.38,0.913 2.071,1.369Z" style="fill:#227a60;"/><path d="M815.954,259.833c0.421,0.966 6.354,14.588 2.143,12.989c-0.964,-0.366 0.096,-1.111 -7.521,-10.469c-0.3,-0.368 -3.455,-10.546 5.378,-2.52Z" style="fill:#4ed676;"/><path d="M597.137,61.194c17.446,1.519 17.171,1.967 34.024,6.497c-4.651,3.491 -19.442,-2.611 -21.015,-3.26l-1,-0.1c-2.603,-0.259 -2.465,-0.158 -5,-0.827l-1,-0.014l-1,-0.044l-1,-0.055l-1,-0.125l-1,-0.014l-1,-0.083l-1.01,-1.974Z" style="fill:#33a16a;"/><path d="M353.815,540.65c0.501,1.726 1.294,1.437 0.895,3.086c-1.16,4.8 -11.96,11.58 -19.563,8.004c-0.324,-0.152 -3.679,-1.287 -4,-1.395l-1,-0.238l-1,-0.406l-1,-0.393l-0.959,-0.572l-1.041,-0.796l-1,-0.724l1.276,-1.779c18.102,13.043 26.364,-2.813 27.392,-4.786Z" style="fill:#33a36a;"/><path d="M283.054,561.769c2.094,-4.713 1.98,0.925 5.008,4.967c1.784,2.246 2.661,3.665 2.868,4l0.753,1l0.975,1l0.928,1l0.561,0.449l0.616,0.551l1.384,0.918l1,0.649l1,0.779l0.691,0.654l1.309,0.719c0.226,0.132 2.83,1.647 2.83,1.647c4.285,0.783 0.956,2.328 0.938,3.024c-14.083,-8.071 -15.05,-10.007 -20.86,-21.357Z" style="fill:#1f795b;"/><path d="M534.223,256.681c5.648,10.216 2.708,11.477 2.114,10.824c-11.192,-12.307 -9.27,-13.891 -8.077,-14.471c2.133,-1.038 5.609,3.214 5.963,3.647Z" style="fill:#48d670;"/><path d="M592.145,61.174c-0.666,0.685 -1.332,1.37 -1.998,2.055l-1,0.092l-1,0.144l-1,-0.09l-1,-0.06l-1,0.063l-1,0.009l-1,0.071l-1,0.011l-1,0.135l-1,0.061c-2.041,0.622 -5.516,0.889 -6,0.927c-0.722,0.153 -0.51,-0.05 -1,0.054c-0.241,0.051 -0.222,0.053 -3,0.71l-1,0.129c-4.465,1.766 -3.904,4.993 -8.433,2.928c9.487,-8.362 20.02,-6.435 31.431,-7.236Z" style="fill:#36a76b;"/><path d="M709.09,427.381c14.693,-1.055 14.574,-0.657 29.151,1.912l-1.095,1.836c-5.101,-1.017 -15.635,-1.954 -17,-2.075l-1,-0.18l-1,-0.066l-1,0.222l-1,-0.249l-1,0.073l-1,0.161l-1,0.098l-1,0.013l-1,0.032c-0.686,-0.592 -1.371,-1.184 -2.057,-1.777Z" style="fill:#349d68;"/><path d="M172.119,62.193c14.9,2.035 14.819,2.006 29.135,6.277c-2.362,1.378 -2.394,1.824 -4.982,0.784c-2.668,-1.072 -2.538,-1.033 -5.126,-2.013c-0.667,-0.088 -1.333,-0.177 -2,-0.265l-1,-0.296l-1,-0.172l-1,-0.262l-1,-0.131l-1,-0.364l-1,-0.152l-1,-0.105l-1,-0.138l-1,-0.324l-1,-0.145l-1,-0.146l-1,-0.098l-1,-0.185l-1,-0.097l-1,-0.017l-1,-0.223l-1.027,-1.929Z" style="fill:#349e69;"/><path d="M343.229,66.297l-1.083,1.635l-1,-0.053l-1,-0.005l-1,-0.141l-1,-0.237l-1,-0.114l-1,-0.029l-1,-0.067c-1.667,-0.059 -3.333,-0.118 -5,-0.177c-10.398,0.247 -13.97,2.589 -17.049,0.476c15.836,-4.066 18.285,-2.66 30.131,-1.287Z" style="fill:#359d68;"/><path d="M548.863,404.992l1.701,-1.256c11.918,10.629 18.108,-0.526 25.657,3.16c-18.623,7.14 -23.146,1.503 -27.358,-1.904Z" style="fill:#258263;"/><path d="M643.532,282.052c0.22,-6.304 3.297,-3.225 9.615,-4.136c4.57,0.097 4.52,-0.314 9,1.054l1,0.096l1,0.224l1,0.64l1,0.263l1,0.521l1,0.678l-1.106,1.531c-6.137,-2.267 -14.224,-4.845 -23.509,-0.873Z" style="fill:#1d7a5b;"/><path d="M419.929,226.065c0.188,-0.094 0.002,-2.059 2.218,-1.104c0.384,0.166 2.619,1.129 5,1.531l1,0.308c0.628,0.136 1.909,0.414 8,0.717l1,-0.083c3.097,-0.228 5.528,-0.821 6,-0.937l1,-0.359l1,-0.108l1,-0.266c0.69,0.378 1.38,0.755 2.069,1.133c-13.244,3.888 -16.112,3.896 -28.287,-0.833Z" style="fill:#1e7b5e;"/><path d="M760.79,313.706c0.211,-0.608 2.377,-6.836 5.366,-5.992c5.135,1.451 -6.192,19.099 -5.366,5.992Z" style="fill:#50d677;"/><path d="M309.227,529.395l-1.08,1.707l-1,-0.235l-1,-0.261l-1,-0.055l-1,0.099l-1,0.026l-1,0.001l-1,0.034c-1.333,0.187 -2.667,0.374 -4,0.56c-4.9,2.446 -5.253,1.57 -9.227,5.214c-0.133,0.122 0,-0 -2.042,-0.972c9.016,-8.35 13.185,-7.19 23.349,-6.118Z" style="fill:#34a06b;"/><path d="M398.661,294.182c5.271,-2.579 4.362,1.583 9.485,4.176l1,0.163l1,0.235l1,-0.165l1,0.083l1,0.002l1,0.062c3.819,-1.246 4.202,-2.535 7.106,0.262c-13.581,3.227 -14.827,2.41 -22.591,-4.819Z" style="fill:#1e7a61;"/><path d="M486.959,309.679c-4.705,10.283 -5.989,0.519 -5.931,0.048c0.663,-5.308 7.099,-7.19 5.931,-0.048Z" style="fill:#52d877;"/><path d="M687.835,530.793c0.181,-0.281 -0.341,-0.709 -0.16,-0.99c2.033,-3.155 2.138,0.747 2.143,0.934c0.741,1.062 6.728,9.645 13.249,9.301c1.6,-0.085 0.694,0.679 -0.006,2.126c-9.781,-3.117 -11.63,-1.809 -15.226,-11.37Z" style="fill:#227f60;"/><path d="M184.987,253.28c11.445,-2.493 15.738,0.154 22.207,2.345c-0.682,0.41 -1.365,0.82 -2.047,1.23c-4.877,-1.959 -4.927,-1.131 -10,-2.249l-1,0.043l-1,-0.099l-1,0.062l-1,-0.087l-1,0.119l-1,0.165l-1,-0.055l-1,0.224l-1,0.172l-1.159,-1.871Z" style="fill:#2ea06a;"/><path d="M334.128,423.315l-0.981,1.917l-1,0.129l-1,0.071l-1,0.13c-2.85,0.99 -13.921,3.53 -15.139,3.81c-1.604,0.368 -1.32,-0.418 -3.013,-0.954c10.815,-3.844 10.626,-3.952 22.133,-5.103Z" style="fill:#37a46b;"/><path d="M708.819,560.035c4.357,8.632 -14.688,0.207 -7.563,-2.001c3.957,-1.226 3.778,0.084 7.563,2.001Z" style="fill:#4fd974;"/><path d="M725.176,383.746l1.4,0.99c0.134,1.613 0.042,1.487 -0.418,3l-0.173,1l0.328,1c0.232,0.678 0.563,3.735 0.598,4.061c0.545,5.036 7.166,5.545 5.054,10.2c-10.352,-9.159 -7.701,-15.004 -6.79,-20.252Z" style="fill:#247e63;"/><path d="M283.742,482.808l1.813,-0.071l0.275,1l0.319,1l0.28,1l0.427,1c3.291,5.846 3.909,7.333 4.186,8c1.881,4.526 2.988,3.576 3.104,3.962c0.171,0.566 -1.408,0.706 -1.237,1.272c-5.794,-7.213 -6.288,-6.961 -9.168,-17.162Z" style="fill:#217a5d;"/><path d="M688.939,593.157c2.939,-1.369 2.966,-0.132 6.161,-0.117c6.269,0.029 6.139,0.532 12.047,-0.53l1.144,1.576c-9.679,2.396 -10.014,2.334 -19.352,-0.928Z" style="fill:#207d60;"/><path d="M517.151,65.98c-5.666,0.081 -5.935,-1.028 -10.774,2.013c-1.015,-1.76 -1.268,-1.515 -1.231,-3.607l1,-0.215c5.079,-0.597 4.898,-1.435 10,-0.962l1,-0.066l1,0.221l-0.474,1.371l-0.522,1.244Z" style="fill:#23aa4f;"/><path d="M508.302,433.899c0.489,-0.213 4.432,-1.929 6.666,0.056c5.054,4.49 -10.294,7.571 -6.666,-0.056Z" style="fill:#48d273;"/><path d="M290.693,562.229c4.227,3.357 8.454,6.715 12.68,10.072c-1.31,0.241 -2.683,3.798 -9.197,-3.599c-1.949,-2.213 -1.656,-2.24 -3.538,-4.466c-0.746,-0.883 0.026,-0.947 0.054,-2.007Z" style="fill:#0e8147;"/><path d="M628.143,433.081c7.991,1.663 2.423,6.417 -0.878,5.244c-4.156,-1.477 -3.198,-3.853 0.878,-5.244Z" style="fill:#58d77b;"/><path d="M457.564,206.685c0.502,9.831 1.142,11.382 -4.231,17.31l-1.517,-1.259l0.751,-1l1.011,-1c1.956,-4.277 1.456,-4.297 2.386,-9l0.154,-1l0.001,-1l0.08,-1c0.455,-0.684 0.909,-1.368 1.364,-2.052Z" style="fill:#268162;"/><path d="M273.16,123.747c6.946,-3.504 2.676,6.225 1.937,6.941c-0.414,0.401 -5.284,1.776 -1.937,-6.941Z" style="fill:#4bd86f;"/><path d="M443.219,64.287c8.152,2.166 8.214,2.113 14.117,8.297l-1.189,1.055c-4.768,-3.058 -4.253,-3.509 -9,-6.258c-1.627,-0.645 -1.494,-0.6 -1.627,-0.645c-0.709,-0.242 -0.64,0.054 -1.373,-0.197l-1,-0.362l0.072,-1.891Z" style="fill:#3aa96e;"/><path d="M294.935,439.554l1.212,1.454l-0.595,0.728l-0.903,1c-1.256,2.084 -1.709,2.542 -1.896,2.732c-0.29,0.293 -1.312,1.328 -2.891,4.268l-0.51,1l-0.563,1l-0.408,1l-0.388,1l-0.474,1l-1.802,-0.157c3.868,-8.111 3.644,-8.041 9.217,-15.026Z" style="fill:#339c66;"/><path d="M243.152,435.116c4.079,1.355 5.086,3.695 1.075,4.953c-2.844,0.892 -9.262,-3.188 -1.075,-4.953Z" style="fill:#4cd674;"/><path d="M779.165,380.208c2.913,-2.955 3.289,-1.84 6.982,-2.085l1,0.157l1,0.471l1,0.039l1,-0.003l1,0.153l1,0.134l1,0.149l1,0.011l1,0.156l0.023,1.912c-5.335,-0.364 -10.67,-0.729 -16.005,-1.093Z" style="fill:#22785d;"/><path d="M189.842,113.191l1.304,-1.659l1,0.494l1,0.883c3.262,2.718 3.456,2.358 5.558,5.11c3.184,4.168 0.2,4.764 0.165,4.874c-3.943,-5.479 -3.733,-5.423 -9.027,-9.702Z" style="fill:#1f795c;"/><path d="M716.895,493.238l0.251,1.834l-1.313,0.665l-0.687,0.502l-1,0.423l-1,0.537c-0.707,0.406 -7.307,4.192 -9,4.781l-1.129,-1.419c6.832,-4.072 6.661,-3.933 13.878,-7.323Z" style="fill:#36a268;"/><path d="M780.023,70.063c6.493,6.161 -8.373,4.417 -6.554,0.798c0.974,-1.936 6.036,-0.903 6.554,-0.798Z" style="fill:#4fd971;"/><path d="M708.706,356.744c1.075,-5.777 5.115,-2.394 4.54,2.009c-0.051,0.394 -4.399,7.665 -4.54,-2.009Z" style="fill:#54d67a;"/><path d="M298.264,468.744c-3.436,8.768 -6.187,-0.685 -4.087,-2.979c2.905,-3.172 4.01,2.582 4.087,2.979Z" style="fill:#4cd774;"/><path d="M292.973,77.468l1.448,1.269c-0.758,0.522 -1.516,1.044 -2.275,1.567c-4.483,4.121 -4.13,4.303 -9,7.73l-1.107,-1.399c5.31,-4.957 5.289,-4.761 10.933,-9.166Z" style="fill:#35a566;"/><path d="M507.075,59.279l0.072,1.879l-1,0.196c-5.216,2.622 -6.34,1.132 -9.497,6.111c-0.758,1.195 -0.609,-0.299 -1.922,-0.942c4.245,-6.223 5.104,-5.274 12.347,-7.245Z" style="fill:#3aaa6c;"/><path d="M370.709,443.841c1.468,-7.048 5.764,-0.189 6.203,0.955c0.18,0.469 -1.075,6.938 -6.203,-0.955Z" style="fill:#48d673;"/><path d="M759.286,456.763c0.267,-0.384 3.444,-4.957 5.459,2.077c1.275,4.452 -4.57,4.664 -5.459,-2.077Z" style="fill:#4fd777;"/><path d="M358.389,38.108c-3.68,2.32 -7.359,4.641 -11.039,6.961c-0.923,-1.903 -1.067,-1.813 -0.923,-1.903c6.069,-3.775 5.665,-4.63 9.72,-5.956l1,-0.514l1.243,1.412Z" style="fill:#247d5d;"/><path d="M60.581,168.232c-4.482,4.093 -4.521,3.846 -8.139,8.688c-0.078,-0.656 -1.512,-0.527 -1.59,-1.183c-0.064,-0.541 3.02,-4.607 3.309,-4.989c2.45,-3.23 2.708,-4.439 6.42,-2.516Z" style="fill:#22785c;"/><path d="M659.092,104.421c3.037,0.958 3.111,1.169 3.661,4.32c0.845,4.833 -10.497,-0.755 -3.661,-4.32Z" style="fill:#54da77;"/><path d="M325.326,289.976c3.333,-1.17 4.583,-0.574 3.793,2.754c-1.086,4.575 -6.812,2.127 -3.793,-2.754Z" style="fill:#50d678;"/><path d="M756.936,301.656l1.709,1.081l-0.329,1l-0.941,3c-2.547,7.258 -2.65,7.617 -3.229,7.341c-0.185,-0.089 0,-0 -1.028,-2.35l3.818,-10.071Z" style="fill:#329f68;"/><path d="M226.863,103.833c0.981,8.116 -8.061,-0.145 -4.425,-2.733c1.616,-1.15 4.181,2.396 4.425,2.733Z" style="fill:#4bd771;"/><path d="M84.516,89.881c-3.25,6.118 -3.835,5.455 -8.228,9.156c0.085,-0.557 -1.167,-0.743 -1.082,-1.3c0.129,-0.844 2.278,0.912 7.238,-7.845c0.694,-1.226 0.854,-0.595 2.072,-0.011Z" style="fill:#257c5f;"/><path d="M138.986,316.739c0.065,-0.346 0.975,-5.176 3.993,-1.846c2.042,2.253 -1.357,8.428 -3.993,1.846Z" style="fill:#54d978;"/><path d="M190.125,594.125l1.021,-1.878l1,-0.092c6.586,0.137 7.416,-2.26 11.988,2.108c-4.67,-0.046 -9.339,-0.092 -14.009,-0.138Z" style="fill:#1e7b5e;"/><path d="M796.4,310.804l-3.116,9.974c-0.54,-0.68 -1.08,-1.361 -1.62,-2.041l0.046,-1l0.486,-1c1.706,-5.313 1.71,-11.023 4.204,-5.933Z" style="fill:#25795f;"/><path d="M50.872,405.01c3.784,-1.682 3.304,0.53 6.274,3.209l0.565,0.518c0.358,0.25 3.236,2.255 4.562,3l-1.332,1.352c-5.307,-3.725 -5.223,-3.618 -10.069,-8.078Z" style="fill:#207c5f;"/><path d="M13.647,209.98c0.007,0.002 1.186,-2.61 4.229,2.954c1.445,2.642 1.469,2.395 3.002,4.802l0.721,1l-1.666,1.169c-3.296,-4.974 -3.407,-4.705 -6.287,-9.925Z" style="fill:#21795e;"/><path d="M124.956,69.483c-0.018,1.145 1.633,1.296 -0.046,2.982c-1.601,1.607 -1.404,1.487 -3.088,3.271l-0.576,1l-0.372,1l-0.173,1l-0.034,1l-0.158,1l-1.896,1.043c1.668,-6.919 1.217,-7.252 6.343,-12.297Z" style="fill:#339f68;"/><path d="M628.633,509.841c-1.907,5.693 -1.33,6.062 -6.354,10.128c0.311,-0.565 -1.802,-0.667 -1.491,-1.232c3.381,-6.133 4.536,-5.245 4.705,-5.82c0.055,-0.187 -0,0 1.084,-2.18l0.286,-1l1.771,0.104Z" style="fill:#227f5f;"/><path d="M546.93,487.706c1.441,-2.712 2.159,-4.449 3.948,-1.819c2.364,3.474 -3.371,8.035 -3.948,1.819Z" style="fill:#4dd376;"/><path d="M411.759,213.795l1.878,-0.058l0.235,1c2.773,6.95 4.941,5.821 5.274,8.578c0.074,0.61 -1.141,0.894 -1.067,1.504c-5.218,-5.058 -4.551,-5.465 -6.32,-11.024Z" style="fill:#20785d;"/><path d="M133.306,249.298c4.566,2.525 4.547,2.43 8.083,6.296c-3.455,1.553 -3.193,-0.203 -5.117,-2.038c-2.293,-2.186 -4.287,-1.528 -2.965,-4.257Z" style="fill:#33a86c;"/><path d="M612.19,302.741c-4.03,8.007 -5.574,-2.177 -3.134,-3.171c2.455,-1 3.077,2.819 3.134,3.171Z" style="fill:#51d778;"/><path d="M208.397,256.255c4.657,3.182 4.757,2.808 8.181,7.231l-1.503,1.251l-0.928,-1.29l-1,-1.16l-1,-1.03c-3.341,-1.965 -5.52,-1.499 -3.75,-5.001Z" style="fill:#31a168;"/><path d="M175.844,315.728c0.093,-0.333 1.483,-5.319 3.936,-1.771c1.472,2.128 -2.262,9.832 -3.936,1.771Z" style="fill:#47d474;"/><path d="M467.872,172.892c4.044,-1.978 2.828,1.388 6.005,6.844l0.63,1l-1.634,1.163l-5,-9.007Z" style="fill:#1f7a5c;"/><path d="M517.312,425.327c4.571,2.593 4.51,2.487 8.101,6.237c-2.15,0.948 -2.171,0.099 -9.547,-4.828l1.445,-1.409Z" style="fill:#35a870;"/><path d="M288.994,309.736c-2.169,6.627 -6.398,-1.985 -2.891,-3.095c2.552,-0.808 1.963,0.546 2.891,3.095Z" style="fill:#55da7c;"/><path d="M435.99,319.944l1.157,-1.516c4.479,1.612 4.062,2.15 6.222,6.308l-1.612,1.259c-1.353,-1.593 -2.706,-3.187 -4.059,-4.78l-1.709,-1.272Z" style="fill:#002d36;"/><path d="M649.266,76.518c2.753,2.281 5.506,4.563 8.259,6.844c-4.366,2.093 -3.892,-0.504 -7.379,-3.994l-1,-0.615l-1,-0.866l1.12,-1.369Z" style="fill:#36a76b;"/><path d="M339.869,254.338c0.51,1.109 1.256,1.057 0.277,1.888c-6.345,6.22 -6.264,6.2 -7,6.381c-0.575,0.141 -0.748,-1.328 -1.324,-1.186c3.983,-3.78 3.861,-3.648 8.047,-7.083Z" style="fill:#34a169;"/><path d="M486.314,139.643c1.505,5.606 -5.704,3.205 -4.073,-0.856c1.067,-2.656 3.856,0.603 4.073,0.856Z" style="fill:#4ad472;"/><path d="M139.059,153.746c-1.846,6.126 -6.222,-1.36 -3.067,-2.393c2.263,-0.741 2.041,0.161 3.067,2.393Z" style="fill:#4ed975;"/><path d="M425.45,396.033c-2.373,1.993 -4.745,3.986 -7.118,5.98c0.384,-1.239 -1.815,-0.102 -1.452,-1.276c0.087,-0.281 0.169,-0.545 2.64,-2.562c2.844,-2.321 2.68,-3.658 5.93,-2.142Z" style="fill:#207b5f;"/><path d="M166.356,491.824c2.237,-1.867 3.286,-1.956 3.805,0.911c0.639,3.526 -4.332,4.168 -3.805,-0.911Z" style="fill:#4fda79;"/><path d="M700.861,126.701c1.239,-3.024 2.883,-3.973 3.876,-0.827c1.158,3.671 -3.383,5.835 -3.876,0.827Z" style="fill:#4dd974;"/><path d="M605.899,252.46l1.248,1.707l-0.565,0.57l-0.902,1c-1.813,3.553 -1.5,5.477 -4.977,3.808c2.349,-3.784 2.374,-3.568 5.196,-7.085Z" style="fill:#36a56d;"/><path d="M358.488,355.531c2.787,3.637 2.615,3.581 5.856,6.982c-0.531,-0.277 -0.784,1.499 -1.315,1.223c-0.651,-0.339 -4.583,-2.387 -5.921,-7l1.38,-1.205Z" style="fill:#329f69;"/><path d="M599.773,390.841c0.614,0.008 0.86,-1.113 1.473,-1.104c1.685,0.023 -0.146,1.604 3.514,7.231c0.103,0.158 0,0 -1.098,2.093c-2.488,-4.06 -2.309,-3.94 -3.889,-8.219Z" style="fill:#22795e;"/><path d="M699.317,253.508c3.355,2.875 3.165,2.814 6.22,5.936c-0.153,0.066 -1.911,0.825 -1.911,0.825c-3.551,-3.202 -6.368,-2.514 -4.309,-6.761Z" style="fill:#32a767;"/><path d="M457.336,72.584c1.705,2.326 3.409,4.652 5.114,6.978c-1.72,0.801 -1.832,0.535 -2.869,-1.113c-2.295,-3.647 -2.627,-3.372 -2.772,-3.713l-0.661,-1.097l1.189,-1.055Z" style="fill:#37a369;"/><path d="M193.9,171.483c-0.227,0.536 1.443,0.718 1.216,1.254c-0.958,2.26 -6.571,5.29 -6.969,5.171c-0.58,-0.173 -0.558,-1.242 -1.138,-1.415c3.726,-2.415 3.501,-2.33 6.892,-5.01Z" style="fill:#38a469;"/><path d="M693.026,563.519c-6.628,1.957 -1.353,-6.01 1.168,-3.84c1.913,1.647 0.566,1.871 -1.168,3.84Z" style="fill:#4ed974;"/><path d="M565.978,141.672c1.856,-2.193 2.975,-2.635 3.804,0.163c0.729,2.458 -3.979,5.956 -3.804,-0.163Z" style="fill:#46d172;"/><path d="M474.551,101.523l3.928,7.055c-4.446,2.173 -2.972,-1.521 -5.365,-5.841l1.437,-1.214Z" style="fill:#35a268;"/><path d="M324.019,270.644l1.612,1.092c-0.874,1.901 -4.416,6.9 -4.485,6.911c-0.588,0.091 -0.797,-1.219 -1.385,-1.127c1.419,-2.292 2.839,-4.584 4.258,-6.876Z" style="fill:#329f67;"/><path d="M625.828,115.095l1.354,-1.359l0.964,0.504l0.547,0.496c4.557,4.903 2.39,5.429 2.195,6.164c-1.687,-1.935 -3.374,-3.87 -5.061,-5.805Z" style="fill:#1e725b;"/><path d="M819.297,250.453c3.479,2.196 3.372,1.993 6.334,4.872c-3.714,1.749 -3.379,-0.342 -6.484,-2.841c-0.427,-0.249 -0.854,-0.498 -1.28,-0.747l1.43,-1.284Z" style="fill:#32a36b;"/><path d="M607.649,404.186c2.195,-1.059 2.131,-0.247 4.304,0.922c2.054,1.105 3.117,0.875 2.051,3.03c-3.475,-1.721 -3.352,-1.58 -6.355,-3.952Z" style="fill:#237c62;"/><path d="M654.567,210.185c-2.06,1.636 -4.12,3.272 -6.18,4.907c-1.481,-2.876 2.81,-6.654 6.18,-4.907Z" style="fill:#207c5e;"/><path d="M382.467,502.31c1.977,1.726 3.954,3.453 5.931,5.179c-2.394,1.074 -7.789,-1.496 -5.931,-5.179Z" style="fill:#33a167;"/><path d="M104.367,220.902c-1.694,1.668 -3.387,3.335 -5.081,5.003c0.169,-0.53 -1.363,-0.638 -1.193,-1.168c1.891,-5.916 5.742,-4.087 6.274,-3.835Z" style="fill:#237b62;"/><path d="M382.348,435.504c2.732,2.878 2.726,2.641 5.2,5.972l-1.879,0.26c-2.87,-2.865 -4.852,-2.513 -3.321,-6.232Z" style="fill:#339867;"/><path d="M794.421,220.897c-2.056,2.094 -1.788,2.048 -4.207,3.968c-2.901,-1.912 0.202,-5.858 4.207,-3.968Z" style="fill:#237a61;"/><path d="M276.95,208.907c0.516,0.279 0.681,-1.568 1.196,-1.289c3.98,2.149 5.714,2.206 3.844,6.302c-1.68,-1.671 -3.36,-3.341 -5.041,-5.012Z" style="fill:#1f755c;"/><path d="M46.858,92.894c1.696,-0.739 1.905,-0.705 2.889,0.842c2.31,1.756 3.323,1.7 2.12,4.429c-2.787,-2.427 -2.564,-2.392 -5.009,-5.271Z" style="fill:#23765f;"/><path d="M709.521,307.894c-1.321,2.046 -2.641,4.093 -3.962,6.139c-0.94,-1.961 -1.026,-1.81 -0.94,-1.961c1.773,-3.119 1.342,-3.941 4.902,-4.178Z" style="fill:#247a61;"/><path d="M217.355,352.623c1.072,1.61 2.143,3.221 3.215,4.831c-3.624,1.619 -3.577,-0.033 -4.679,-3.718l1.465,-1.113Z" style="fill:#32a169;"/><path d="M664.34,199.89l-3.762,4.247c-0.232,-0.438 -2.296,-4.336 2.568,-5.642c0.591,-0.159 0.603,1.553 1.194,1.394Z" style="fill:#22735f;"/><path d="M449.858,396.914c0.212,0.007 1.225,-2.54 2.958,0.096c1.348,2.051 2.02,1.969 1.074,4.084c-1.344,-1.393 -2.688,-2.787 -4.032,-4.18Z" style="fill:#217a64;"/><path d="M77.28,64.542c1.401,1.307 2.802,2.613 4.202,3.92c-3.458,1.582 -3.806,0.726 -5.478,-2.725c-0.254,-0.524 1.53,-0.67 1.276,-1.194Z" style="fill:#339566;"/><path d="M164.96,439.388c0.815,1.658 1.606,2.03 -0.124,2.885c-3.378,1.67 -3.388,0.255 -3.906,0.272c1.343,-1.053 2.687,-2.105 4.03,-3.158Z" style="fill:#389f6b;"/><path d="M711.461,465.225c-1.3,1.282 -2.601,2.564 -3.901,3.846c-0.215,-0.413 -2.203,-4.243 2.587,-5.214c0.62,-0.126 0.695,1.494 1.315,1.368Z" style="fill:#1e7059;"/><path d="M31.925,148.41c1.824,3.76 -0.343,4.853 -4.14,2.89c1.38,-0.963 2.76,-1.926 4.14,-2.89Z" style="fill:#359a66;"/><path d="M74.594,145.974c-0.49,3.27 -0.829,3.071 -3.295,5.088c-1.275,-3.392 0.407,-2.99 3.295,-5.088Z" style="fill:#27a95e;"/><path d="M735.295,522.94c-1.288,1.03 -2.576,2.06 -3.865,3.09c-1.684,-3.56 0.202,-4.537 3.865,-3.09Z" style="fill:#21775d;"/><path d="M21.763,185.772c-1.753,5.059 -3.71,0.133 -2.647,-1.064c1.328,-1.495 1.671,-0.684 2.647,1.064Z" style="fill:#46ce6f;"/><path d="M703.157,512.733l0.94,0.826c-0.405,1.807 -0.111,2.028 -0.88,2.303c-3.242,1.162 -0.21,-2.928 -0.061,-3.129Z" style="fill:#37c164;"/><path d="M591.147,324.366c0.05,0.199 1.528,6.116 -0.988,2.37c-0.115,-0.171 0,0 0.988,-2.37Z" style="fill:#022544;"/><path d="M282.205,257.584c-1.054,-0.593 -2.956,-1.089 -1.506,-0.848c0.901,0.15 0.537,0.686 1.506,0.848Z" style="fill:#2cab63;"/></g></svg>